<svg xmlns="http://www.w3.org/2000/svg" viewBox="0 0 47.32 47.29"><defs><style>.cls-1{isolation:isolate;}.cls-2{opacity:0.3;mix-blend-mode:multiply;}.cls-3{fill:#756435;}.cls-4{fill:#d27836;}.cls-5{fill:#d58144;}.cls-6{fill:#d98e56;}.cls-7{fill:none;stroke:#d98e56;stroke-linecap:round;stroke-miterlimit:10;stroke-width:3px;}</style></defs><title>EnvivoLungo</title><g class="cls-1"><g id="Слой_2" data-name="Слой 2"><g id="Layer_2" data-name="Layer 2"><g class="cls-2"><ellipse class="cls-3" cx="31.03" cy="19.3" rx="8.96" ry="21.23" transform="translate(-4.56 27.59) rotate(-45)"/><path class="cls-3" d="M19.58,6.91c9.54,1,23.24,14.68,23.87,23.86a1.56,1.56,0,0,1-.62,1.36L23.44,46.58a3.59,3.59,0,0,1-2.61.68l-6.2-.81A8.09,8.09,0,0,1,10,44.15L6.18,40.37a8.09,8.09,0,0,1-2.3-4.68l-.81-6.2a3.59,3.59,0,0,1,.68-2.61L18.17,7.52A1.55,1.55,0,0,1,19.58,6.91Z"/><ellipse class="cls-3" cx="9.31" cy="41.02" rx="2.71" ry="6.38" transform="translate(-26.28 18.59) rotate(-45)"/></g><ellipse class="cls-4" cx="28.03" cy="16.3" rx="8.96" ry="21.23" transform="translate(-3.32 24.59) rotate(-45)"/><path class="cls-5" d="M16.58,3.91c9.54,1,23.24,14.68,23.87,23.86a1.56,1.56,0,0,1-.62,1.36L20.44,43.58a3.59,3.59,0,0,1-2.61.68l-6.2-.81A8.09,8.09,0,0,1,7,41.15L3.18,37.37a8.09,8.09,0,0,1-2.3-4.68l-.81-6.2a3.59,3.59,0,0,1,.68-2.61L15.17,4.52A1.55,1.55,0,0,1,16.58,3.91Z"/><ellipse class="cls-6" cx="6.31" cy="38.02" rx="2.71" ry="6.38" transform="translate(-25.04 15.59) rotate(-45)"/><path class="cls-7" d="M1.5,24.33c3-.8,7.71.73,12.7,5.94s6.74,9.54,5.39,12.94"/></g></g></g></svg>