<svg xmlns="http://www.w3.org/2000/svg" viewBox="0 0 47.52 47.52"><defs><style>.cls-1{isolation:isolate;}.cls-2{opacity:0.3;mix-blend-mode:multiply;}.cls-3{fill:#756435;}.cls-4,.cls-8{fill:none;stroke-linecap:round;stroke-miterlimit:10;stroke-width:3px;}.cls-4{stroke:#756435;}.cls-5{fill:#0c8e88;}.cls-6{fill:#2c968d;}.cls-7{fill:#41a199;}.cls-8{stroke:#41a199;}</style></defs><title>Fortissiolungo</title><g class="cls-1"><g id="Слой_2" data-name="Слой 2"><g id="Layer_2" data-name="Layer 2"><g class="cls-2"><ellipse class="cls-3" cx="31.22" cy="19.3" rx="8.96" ry="21.23" transform="translate(-4.5 27.73) rotate(-45)"/><path class="cls-3" d="M19.78,6.91c9.54,1,23.24,14.68,23.87,23.86A1.56,1.56,0,0,1,43,32.13L23.64,46.58a3.59,3.59,0,0,1-2.61.68l-6.2-.81a8.09,8.09,0,0,1-4.68-2.3L6.37,40.37a8.09,8.09,0,0,1-2.3-4.68l-.81-6.2a3.59,3.59,0,0,1,.68-2.61L18.37,7.52A1.55,1.55,0,0,1,19.78,6.91Z"/><ellipse class="cls-3" cx="9.5" cy="41.02" rx="2.71" ry="6.38" transform="translate(-26.22 18.73) rotate(-45)"/><path class="cls-4" d="M4.5,27.53c3-.87,7.72.56,12.83,5.67S24.27,42.59,23,46"/></g><ellipse class="cls-5" cx="28.22" cy="16.3" rx="8.96" ry="21.23" transform="translate(-3.26 24.73) rotate(-45)"/><path class="cls-6" d="M16.78,3.91c9.54,1,23.24,14.68,23.87,23.86A1.56,1.56,0,0,1,40,29.13L20.64,43.58a3.59,3.59,0,0,1-2.61.68l-6.2-.81a8.09,8.09,0,0,1-4.68-2.3L3.37,37.37a8.09,8.09,0,0,1-2.3-4.68l-.81-6.2a3.59,3.59,0,0,1,.68-2.61L15.37,4.52A1.55,1.55,0,0,1,16.78,3.91Z"/><ellipse class="cls-7" cx="6.5" cy="38.02" rx="2.71" ry="6.38" transform="translate(-24.98 15.73) rotate(-45)"/><path class="cls-8" d="M1.5,24.53c3-.87,7.72.56,12.83,5.67S21.27,39.59,20,43"/></g></g></g></svg>