<svg xmlns="http://www.w3.org/2000/svg" viewBox="0 0 163.54 29"><defs><style>.cls-1{fill:#8D734A;}</style></defs><title>nespresso</title><g id="Слой_2" data-name="Слой 2"><g id="Layer_1" data-name="Layer 1"><path class="cls-1" d="M69.86,4.9H60.2V24.18h4.89V17.11s7,.38,8.95-2.22c1.47-1.68,1.55-4.36.95-6.43A5,5,0,0,0,69.86,4.9Zm.55,8.68c-1.15,1.35-3.67,1.33-5.34,1.22l0-7.73s4.34-.61,5.49,1.37C71.23,9.61,71.39,12.27,70.41,13.58ZM28.88,27.32a16.14,16.14,0,0,1-5.71-4.38c-1.87-2.14-6.35-8.17-6.35-8.17-2.31-3-5.39-7.91-8.44-10.41V24.13H11.1v-10c1.92,2.44,4.16,5.57,5.84,7.54.74.89,2.65,3,3.2,3.41,3.51,3.42,9.94,5,15.31,3.08V28A11.63,11.63,0,0,1,28.88,27.32ZM12.28,6.06c1.87,2.14,6.35,8.17,6.35,8.17,2.31,3,5.39,7.91,8.44,10.41V4.87H24.35v10C22.43,12.4,20.19,9.27,18.5,7.3c-.74-.89-2.65-3-3.2-3.41C11.8.47,5.37-1.07,0,.81V1a11.63,11.63,0,0,1,6.57.68A16.13,16.13,0,0,1,12.28,6.06ZM43,7.05,43,4.9H29.82V24.18H43L43,22a71.81,71.81,0,0,1-8.31.21V15.3a49.55,49.55,0,0,1,6.63.11V13.12a38,38,0,0,1-6.63.1V6.86C37.3,6.59,40.47,7,43,7.05Zm13.65,7.75c-2.23-1.93-4.94-2.54-6.85-3.85a2,2,0,0,1-.46-3.09c1.61-1.79,5-.95,5.74-.76a17.16,17.16,0,0,1,2.46,1V5.71c-4-1.17-10.4-2.28-12.92,1.75a4.76,4.76,0,0,0,1.5,6.41C48.82,16,53.24,17,53.79,18.75a2.38,2.38,0,0,1-.7,2.49c-2.39,2.22-6.22.83-8.7-.27v2.39a15.13,15.13,0,0,0,9.08.86c2.06-.46,4.37-2.28,4.74-4.52S58.11,16,56.65,14.81Zm36.42,8.36L92.47,22c-1.28-2.39-2.31-4.39-3.43-7a2.81,2.81,0,0,1,.43-.2,5,5,0,0,0,2.94-5.06c-.08-3.27-3.07-4.89-5.69-4.89H76.94V24.18h4.91v-8h2.8c.93,1.56,2.83,6,3.13,6.67l.58,1.3H93.6l-.47-.9ZM87,12.82c-1.15,1.39-3.54,1.28-5.19,1.28V7S86,6.4,87.17,8.42A4.78,4.78,0,0,1,87,12.82ZM149.39,4.6c-1.28,0-9.54.13-9.58,9.86s8.16,10,9.58,10,9.58-.37,9.56-10S150.68,4.59,149.39,4.6Zm0,17.2h-.07c-.54,0-4.49.17-4.46-7.72,0-7.31,3.87-7.11,4.5-7.11s4.47-.21,4.5,7.11C153.93,22,150,21.81,149.43,21.81Zm12.48.15h0a.58.58,0,0,0,.39-.62c0-.4-.26-.65-.78-.65h-1.17V23.1h.43v-1h.62c.39,0,.49.2.49.65a.69.69,0,0,0,.06.35h.45a1,1,0,0,1-.13-.63C162.27,22.1,162.05,22,161.91,22Zm-.44-.17h-.69V21h.69c.21,0,.42.07.42.37S161.74,21.79,161.47,21.79Zm-.23-2.18a2.29,2.29,0,1,0,2.3,2.28A2.29,2.29,0,0,0,161.24,19.62Zm0,4.36a2.07,2.07,0,1,1,2.06-2.07A2.07,2.07,0,0,1,161.24,24Zm-39.12-9.17c-2.23-1.93-4.94-2.54-6.85-3.85a2,2,0,0,1-.46-3.09c1.61-1.79,5-.95,5.74-.76a17.16,17.16,0,0,1,2.46,1V5.71c-4-1.17-10.4-2.28-12.92,1.75a4.76,4.76,0,0,0,1.5,6.41c2.69,2.14,7.11,3.16,7.66,4.89a2.38,2.38,0,0,1-.7,2.49c-2.39,2.22-6.22.83-8.7-.27v2.39a15.13,15.13,0,0,0,9.08.86c2.06-.46,4.37-2.28,4.74-4.52S123.58,16,122.12,14.81Zm15,0c-2.22-1.93-4.93-2.54-6.83-3.85a2,2,0,0,1-.47-3.09c1.6-1.79,5-.95,5.74-.76a17,17,0,0,1,2.47,1V5.71c-4-1.17-10.4-2.28-12.92,1.75a4.74,4.74,0,0,0,1.5,6.41c2.7,2.14,7.12,3.16,7.65,4.89a2.33,2.33,0,0,1-.71,2.49c-2.38,2.22-6.22.83-8.68-.27l0,2.39a15.16,15.16,0,0,0,9.08.86c2.07-.46,4.37-2.28,4.76-4.52S138.55,16,137.09,14.81ZM95.22,24.18h13.19V22a72,72,0,0,1-8.31.21V15.3a49.76,49.76,0,0,1,6.64.11V13.12a38.17,38.17,0,0,1-6.65.1c0-.41,0-6.37,0-6.37,2.6-.27,5.77.15,8.31.2V4.9H95.22Z"/></g></g></svg>