<svg xmlns="http://www.w3.org/2000/svg" xmlns:xlink="http://www.w3.org/1999/xlink" viewBox="0 0 650 364.2"><title>pimps</title><g id="Слой_2" data-name="Слой 2">
<g id="Layer_2" data-name="Layer 2"><polygon points="614 103.27 614 121.2 590.04 121.2 583.8 129.88 576.33 121.2 554 121.2 554 103.27 614 103.27" style="fill:#f2f5f5"/><text transform="translate(559.97 116.27)" style="font-size:11px;fill:#d64636;font-family:RobotoSlab-Bold, Roboto Slab;font-weight:700;letter-spacing:0.07998934659090909em">ИНДИЯ</text><polygon points="516 137.65 516 155.59 487 155.59 480.76 164.26 473.29 155.59 446 155.59 446 137.65 516 137.65" style="fill:#f2f5f5"/><text transform="translate(451.97 150.65)" style="font-size:11px;fill:#d64636;font-family:RobotoSlab-Bold, Roboto Slab;font-weight:700;letter-spacing:0.07998934659090909em">ЭФИОПИЯ</text><polygon points="288 203.65 288 221.59 254 221.59 247.76 230.26 240.29 221.59 208 221.59 208 203.65 288 203.65" style="fill:#f2f5f5"/><text transform="translate(213.97 216.65)" style="font-size:11px;fill:#d64636;font-family:RobotoSlab-Bold, Roboto Slab;font-weight:700;letter-spacing:0.07998934659090909em">БРАЗИЛИЯ</text><polygon points="191 124.65 191 142.59 149 142.59 142.76 151.26 136 142.26 101 142.59 101 124.65 191 124.65" style="fill:#f2f5f5"/><text transform="translate(106.97 137.65)" style="font-size:11px;fill:#d64636;font-family:RobotoSlab-Bold, Roboto Slab;font-weight:700;letter-spacing:0.07998934659090909em">ГВАТЕМАЛА</text><polygon points="132 89.27 132 107.2 102.71 107.2 96.47 115.88 89 107.2 59 107.2 59 89.27 132 89.27" style="fill:#f2f5f5"/><text transform="translate(64.97 102.27)" style="font-size:11px;fill:#d64636;font-family:RobotoSlab-Bold, Roboto Slab;font-weight:700;letter-spacing:0.07998934659090909em">МЕКСИКА</text><polygon points="504 166.65 504 184.59 482.71 184.59 476.47 193.26 469 184.59 449 184.59 449 166.65 504 166.65" style="fill:#f2f5f5"/><text transform="translate(454.97 179.65)" style="font-size:11px;fill:#d64636;font-family:RobotoSlab-Bold, Roboto Slab;font-weight:700;letter-spacing:0.07998934659090909em">КЕНИЯ</text><polygon points="206 137.65 206 155.59 164 155.59 157.76 164.26 150.29 155.59 113 155.59 113 137.65 206 137.65" style="fill:#f2f5f5"/><text transform="translate(118.97 150.65)" style="font-size:11px;fill:#d64636;font-family:RobotoSlab-Bold, Roboto Slab;font-weight:700;letter-spacing:0.06485262784090909em">КОСТА-РИКА</text><polygon points="231 160.65 231 178.59 193 178.59 186.76 187.26 179.29 178.59 147 178.59 147 160.65 231 160.65" style="fill:#f2f5f5"/><text transform="translate(152.97 173.65)" style="font-size:11px;fill:#d64636;font-family:RobotoSlab-Bold, Roboto Slab;font-weight:700;letter-spacing:0.06485262784090909em">КОЛУМБИЯ</text>
</g>
</g>
</svg>