<svg xmlns="http://www.w3.org/2000/svg" xmlns:xlink="http://www.w3.org/1999/xlink" viewBox="0 0 650 364.2"><defs><style>.cls-1{opacity:0.49;}.cls-2{fill:#753766;}</style></defs><title>pimps</title><g id="Слой_2" data-name="Слой 2">
<g id="map">
    </g><g id="Layer_2" data-name="Layer 2"><path class="cls-2" d="M163.51,174.14,158,162.45a6.19,6.19,0,0,1,5.61-8.83h0a6.19,6.19,0,0,1,5.56,8.92Z"/><g id="_Группа_" data-name="&lt;Группа&gt;"><path class="cls-2" d="M371.08,143.56l-5.49-11.69A6.19,6.19,0,0,1,371.2,123h0a6.19,6.19,0,0,1,5.56,8.92Z"/></g><path class="cls-2" d="M377.06,125.05l-5.49-11.69a6.19,6.19,0,0,1,5.61-8.83h0a6.19,6.19,0,0,1,5.56,8.92Z"/><path class="cls-2" d="M547,145.51l-5.49-11.69a6.19,6.19,0,0,1,5.61-8.83h0a6.19,6.19,0,0,1,5.56,8.92Z"/><path class="cls-2" d="M465.09,92.31,459.6,80.62a6.19,6.19,0,0,1,5.61-8.83h0a6.19,6.19,0,0,1,5.56,8.92Z"/><path class="cls-2" d="M116.08,135.79,110.6,124.1a6.19,6.19,0,0,1,5.61-8.83h0a6.19,6.19,0,0,1,5.56,8.92Z"/><path class="cls-2" d="M93.68,120.42l-5.49-11.69A6.19,6.19,0,0,1,93.8,99.9h0a6.19,6.19,0,0,1,5.56,8.92Z"/><path class="cls-2" d="M78.68,107.21,73.19,95.52A6.19,6.19,0,0,1,78.8,86.7h0a6.19,6.19,0,0,1,5.56,8.92Z"/><path class="cls-2" d="M47.5,85.52,42,73.83A6.19,6.19,0,0,1,47.61,65h0a6.19,6.19,0,0,1,5.56,8.92Z"/></g></g></svg>