<svg xmlns="http://www.w3.org/2000/svg" xmlns:xlink="http://www.w3.org/1999/xlink" viewBox="0 0 650 364.2"><defs><style>.cls-1{opacity:0.49;}.cls-2{fill:#f2f5f5;}.cls-10,.cls-3{font-size:11px;fill:#d64636;font-family:RobotoSlab-Bold, Roboto Slab;font-weight:700;}.cls-11,.cls-3{letter-spacing:0.08em;}.cls-4{letter-spacing:0.09em;}.cls-5{letter-spacing:0.08em;}.cls-6{letter-spacing:-0.04em;}.cls-7{letter-spacing:0.09em;}.cls-8{letter-spacing:0.01em;}.cls-9{letter-spacing:0.09em;}.cls-10{letter-spacing:0.06em;}.cls-12{letter-spacing:0.07em;}.cls-13{letter-spacing:-0.01em;}</style></defs><title>pimphovered</title><g id="Слой_2" data-name="Слой 2"><g id="Layer_2" data-name="Layer 2"><polygon class="cls-2" points="614 103.27 614 121.2 590.04 121.2 583.8 129.88 576.33 121.2 554 121.2 554 103.27 614 103.27"/><text class="cls-3" transform="translate(559.97 116.27)">И<tspan class="cls-4" x="9.5" y="0">Н</tspan><tspan class="cls-5" x="19.09" y="0">ДИЯ</tspan></text><polygon class="cls-2" points="516 137.65 516 155.59 487 155.59 480.76 164.26 473.29 155.59 446 155.59 446 137.65 516 137.65"/><text class="cls-3" transform="translate(451.97 150.65)">ЭФИОПИЯ</text><polygon class="cls-2" points="288 203.65 288 221.59 254 221.59 247.76 230.26 240.29 221.59 208 221.59 208 203.65 288 203.65"/><text class="cls-3" transform="translate(213.97 216.65)">Б<tspan class="cls-6" x="8.23" y="0">Р</tspan><tspan class="cls-5" x="14.96" y="0">АЗ</tspan><tspan class="cls-7" x="31.18" y="0">И</tspan><tspan x="40.77" y="0">ЛИЯ</tspan></text><polygon class="cls-2" points="191 124.65 191 142.59 149 142.59 142.76 151.26 136 142.26 101 142.59 101 124.65 191 124.65"/><text class="cls-3" transform="translate(106.97 137.65)">ГВ<tspan class="cls-8" x="15.6" y="0">А</tspan><tspan x="23.58" y="0">ТЕМ</tspan><tspan class="cls-9" x="51" y="0">А</tspan><tspan x="59.87" y="0">ЛА</tspan></text><polygon class="cls-2" points="132 89.27 132 107.2 102.71 107.2 96.47 115.88 89 107.2 59 107.2 59 89.27 132 89.27"/><polygon class="cls-2" points="504 166.65 504 184.59 482.71 184.59 476.47 193.26 469 184.59 449 184.59 449 166.65 504 166.65"/><polygon class="cls-2" points="206 137.65 206 155.59 164 155.59 157.76 164.26 150.29 155.59 113 155.59 113 137.65 206 137.65"/><text class="cls-10" transform="translate(118.97 150.65)">К<tspan class="cls-11" x="8.58" y="0">О</tspan><tspan class="cls-12" x="17.23" y="0">С</tspan><tspan class="cls-13" x="25.09" y="0">Т</tspan><tspan class="cls-11" x="32.4" y="0">А-РИКА</tspan></text><polygon class="cls-2" points="231 160.65 231 178.59 193 178.59 186.76 187.26 179.29 178.59 147 178.59 147 160.65 231 160.65"/><text class="cls-10" transform="translate(152.97 173.65)">КО<tspan class="cls-5" x="17.07" y="0">ЛУМБИЯ</tspan></text></g></g></svg>