<svg xmlns="http://www.w3.org/2000/svg" viewBox="0 0 594.57 166.47"><defs><style>.cls-1{fill:#6cbe97;stroke:#16985a;stroke-miterlimit:10;stroke-width:0.75px;}.cls-2{fill:#753766;}</style></defs><title>selection_1</title><g id="Слой_2" data-name="Слой 2"><g id="map_click" data-name="map click"><path class="cls-1" d="M507.56,132.39l1.13.16h1l.78.12.93.65,1.45,1.78.77.54,1.62,1.27L516,138l.72.69.86.38.61.16.65.35.65.35.52.38.43.42.48.16.48.12.17.69.43.31.48.08.39.31.39.46.39.31v.46l.13.38.13.42v.93l.18.62.66.61,1.23.35.45,1,.32.65.27.31.09.31.53.46.66.19.8.54.82,1.12-.28.73,0,.62,0,1.08,0,1.23v1.24l-.05.81-.47.23-.62-.19-.3.07-.34.19-.58-.19-.53-.07-.38.19-.39,0-1.12-1.5-.85-.5-.91-.7L522,153.54l-.45-.54-.73-.73-1-.69-.9-1-.68-1.08-.42-1.19-.5-1.15-.4-.77-.4-.73-.7-.89-.65-.73-.91-.85-.7-.5-.54-2-.89-1.23-.78-.5-.64-.58-1.21-2.12-.6-.46-.77-.42-.94-.65-1-.77-1.16-1.62,0-.58.1-.23.31-.16.69.19.51.51Zm51.57,8.75.3.35.08.35-.22.35-.66.11-.82-.19h-.74l-.35.46-.31.58-.14.5-.13.46-.09.69.09.58.27.5-.47.73-1.21.65-.74.31-.21.23-.12.54.14.38.14.27.05.38v.39l-.29.5-.21.39-.16.31-.12.27.05.31.23.27.18.12v.27l-.07.58-.07.23-.26,0-.1-.19v-.66l0-.12-.18,0-.47.31-.68.38-.64.38-.38.23-.43.19-.39,0-.28-.27-.06-.46-.06-.46-.46-.58-.48-.12-.56.19-.56.12-.35-.16-.53-.19-.48,0h-.48l-.39.15-.52.16-.56,0-.57,0-.44-.12-.24-.5-.4-.35-.48,0-.39,0h-1.27l-.7-.19-.36-.31-.1-.62,0-.61,0-.7v-.54l-.14-.46-.31-.5-.4-.42-.44-.5-.35-.31-.35-.35-.26-.5,0-.38-.13-1-.21-.54v-1l.27-1,.19-.73.27-.5.26-.19,1.11,1.44.31.23.44.39.63.33.63-.11.57-.22h.63l.69.05.57-.28.38-.39.51-.39.57-.17,1.07.17,1.07.45.63.05L548,141l.57-.06.51-.22.32-.28.26-.33.45-.5.26-.39.27-.5.08-.56.08-.44.26-.28.4-.39.15-.5.09-.61.08-.39.35-.73.15-.5.26-.17h1.13l.82.05.82.06.61.28.38.38.11.42.17.19-.58.27-.31.08.11.58.37.58.25.31.51.5.25.38.12.38v.35l-.1.54.21.54.43.27.52.27.47.31Zm-51.52-2.2h-.22l-.21-.15-.33-.14-.16-.29-.66-.24-.05-.19.06-.29.17-.19h.61l.16.1.38.29.27.15.26.53-.06.29Zm73,1.9.36.07h.2l.44-.25h.24l.35.21.07.28,0,.25-.12.28-.28.25-.24.21,0,.28.08.35.2.11.44.35.16.39-.32.1-.44,0-.28-.14-.28-.32-.52-.07-.36.14-.12.32,0,.6.16.53.24.42v.35l-.08.18-.32,0-.24-.24-.2-.39-.12-.32-.08-.31,0-.39,0-.32v-.35l-.08-.25,0-.28-.12-.35-.11-.32-.12-.31v-.28l0-.31.09-.35.13-.31.17-.35.25-.42.32-.25h.28l.12.1.11.39v.28l0,.32Zm-7.16.84-.75.65L572,143l-.87.46h-1l-.79-.12-.83-.16-.78,0h-1.4l-.61,0-.79,0h-1.35l-.48.15-.48.23-.44.15-.13.15-.09.15-.07.23,0,.23,0,.19,0,.15v.17l0,.09.08.12.1.11,0,.1.09.12.05.09,0,.07,0,.1,0,.1.19.05.35.5.35.5.66.31.83,0,.78-.46.61-.35.65-.27.78-.23.52,0,.4.42-.52.54-.69.38-.78.54-.43.31-.43.27-.25.46.5.77.58.46.31.23.27.35.23.38.23.31.16.62,0,.58-.24.54-.23.73-.18.73-.32.58-.51.27-.67-.31.17-1,0-.31-.31-.19-.36-.27-.32-.15-.41-.42-.11-.42.11-.46.33-.42.16-.42-.1-.58-.27-.15-.61,0-.68.35-.38.46-.25.46,0,.58.06.38.09.15.12.89.07.38.11.5,0,.5-.05.54-.06.54-.11.46-.28.42-.29.23-.69.16L561,157l-.19-.31V156l.31-.77.09-.77,0-.62,0-.62-.14-.31-.18-.19-.07-.46-.44-.23H560l-.44-.12-.37-.62,0-.61.24-.5.33-.62.33-.69.07-.73.12-.54.17-.46.26-.46.51-.81.12-.13,0-.18,0-.23v-.72l-.07-.38,0-.31.12-.36.11-.32.29-.25.4-.42.44-.27.57-.38.4-.31.35-.23.61.08.74.23.79.08.74.08.52.11.78.19.7.08.56,0,.61,0h.57l.44-.19.53-.27.53-.35.22-.31.18-.23.31-.27.31-.15.31-.08.35,0,.26.16.08.27-.18.38-.26.19Zm-62.07.9-.5.15-.55-.05-.33-.34-.32-.63-.38-.49.06-.19.17-.34h.33l.44.05.16.14.33.24.55.53.16.39Zm83,6.18.34.74.3.49.67.78.5.49.5.39.57.25.32,0,.35-.14.39-.25.38-.42.5-.56.34-.67.19-.24.2-.07.28,0,.44-.07.47-.18.27-.25.23-.32.19-.46L602,148l.44-.25.48-.07.68.1.48.18.53.32.69.46.65.35,1.12.35.77.21,1.2.21,1.09.35.18,15-.22-.21-.41-.53-.35-.32-.56-.46-.44-.49-.4-.43-.42-.21-.77,0-.67.1-.5.25-.42.32-.67.14-.72,0-.55,0-.46-.18,0-.32.14-.28.13-.28.22-.28.26-.28.38-.32.54-.18.59,0,.45-.32.26-.28.09-.42-.14-.35-.47-.5-.44-.49-.61-.71-.24-.6-.7-1-.71-.53-1.31-.56-1.6-.63-1.55-.57-1.19-.56-1.1-.53-1-.32-1.05-.35-.47.21-.38.46-.58.32-.65-.18-.3-.42,0-.21.06-.39-.1-.45-.17-.28-.33-.24-.57-.21-.37-.31v-.35h.36l.56.07.52-.1.43-.21.35-.21,1,0,.71-.1.26-.35-.09-.31-.21-.18-.52-.07-.52,0-.6.11h-1.2l-.68-.11-.44-.24-.29-.32-.33-.45-.44-.32-.56-.07-.72,0-.36-.35.07-.35.51-.46.48-.28.55-.35.56-.28.84-.28.8-.1.44.1.56.25.4.21.36.21.44.21.68.21.32.25.17.53v.81Zm-63.21,2.43-.3.08-.36-.23-.31-.35-.31-.27-.23-.27-.19-.38-.18-.27-.35-.27-.44-.08L528,149l-.14-.15,0-.27.34-.46.35-.23.39-.08h.61l.22,0,.18.23.09.38.1.5.14.42.31.31.49.38.19.5Zm3.45.08-.34.19-.57,0-.31-.23-.14-.35v-.35l.17-.31.3-.19.48,0,.57.27.18.3-.11.36Zm48.91-.54.66,0h1l.22.08.35.12.35.12.22.11.1.35-.08.27-.6.19-.47.07-.4,0-.35-.08-.69.15h-2.09l-.61-.07-.45-.27-.14-.19.11-.46.38-.27.78-.12h1.66Zm-6.76,2-.65,0-.31-.08-.24-.5,0-.42.29-.5.21-.27.52-.16H577l.62.27.26.08.35.16.18.16.18.23V152l.05.19v.15l0,.16-.34.23h-.7Zm18.3,7-.28.1-.42-.21-.08-.33.2-.49.17-.52,0-.26v-.21l.09-.36,0-.21.24-.31.22-.21.23-.1.3.08.22.23.08.36.05.36,0,.21-.13.29-.09.36-.15.34-.16.15-.18.31-.22.23Zm-61.62-1.43.45.19.58.15.49.23.4.27.28.38.4.19.67.27.66.07.66,0h.65l.7,0,.39,0,.29-.27.16-.31.34-.27.38-.15,1.18.08.4.19.67.27.76.27.45.27.37.39.15.31.24.27.59.31.76.23.62.08.78,0,.66.08.51.46v.58l-.1.38.08.54-.51.23-.72-.31-.81-.39-1-.19-.65,0-.78.15-.71-.08-.75-.08h-.66l-.61.08-.44-.08-.66-.08-1.23-.73-.94-.27-1.2-.31h-.87l-.82.19-.56.12-.71-.08-.4-.19-.72-.35-.53-.16-.75,0-.66-.16-.28-.23-.28-.38-.42-.43-.58-.15h-.61l-.44,0-.23-.23.24-.42.47-.19.2-.35.24-.46.3-.12.52,0,.49.08.45.23.39-.08.25-.27.39-.12.53.16Zm13,2.44h-.3l-.23-.16-.23-.19-.05-.19.2-.35.3-.12.39,0h.7l.57.08.14.08.1.16.14.19-.16.23-.73.19-.47.12Zm41,2.38-.4.1-.28-.18.26-.39.28-.21.19-.21,0-.29,0-.31.21-.34.08-.1.37-.16.27-.28.21-.26.2-.13.24.13.16.26V161l0,.21-.07.18,0,.13-.18.31-.45.26-.26.34-.19.23-.27.31Zm-11.22-.51h-.65l-.29-.11,0-.47.35-.25.31-.22.48-.14.24,0h.33l.33,0h.28l.13.14v.11l-.06.29-.47.29-.47.25Zm-24.76,1.52-.4.14-.42-.14-.27-.29-.28-.44,0-.33.27-.25.35-.26.36-.07.42.14.26.18.1.25v.14l.06.29v.14l-.21.4Zm7.67.44-.28,0-.37-.07-.34-.18-.18-.18-.19-.32-.26-.26-.35-.25-.11-.36.15-.25.33.11.3.18.24,0,.41,0,.66.14.09.11.15.36,0,.25.09.15.1.29Zm-5.7.25-.28,0-.25-.07-.15-.36,0-.47.14-.32.14-.33.35-.25.16-.11.33,0,.21.11,0,.11,0,.33V164l-.11.22-.1.26-.11.25-.31.14ZM565,163.65l.46,0,.45,0,.44-.07h.45l.38.14.14.18v.21l-.43.18H566l-.93.11-1.1,0-.83-.11-.66-.07h-.53l-.14-.18.21-.4.35-.18.63-.29.69,0,.67.22Zm-9.11,1.67h-.49l-.35-.22-.15-.4,0-.47.22-.4.27-.18.36,0,.4,0,.33,0,.17.11.26.14.09.18.06.22v.36l.05.14-.23.18-.2.11-.39.18ZM573,165l.2,0h.18l.1.1,0,.14-.2,0-.14.07,0,.1.07.12.11.12.07.08.19.13.14.15-.3.27-.86.91-.47.22-.28,0-.39.15-.51.25-.46,0-.3-.15-.21-.47.09-.33.34-.33.3-.37.42-.4.39-.26.44-.18.35-.15.59-.25.18-.11Zm-8.92,2.39-.7.36-.58,0-.17-.07-.34-.18-.22-.14-.26-.15-.21-.11-.43-.18-.38-.11-.46-.15-.62-.14-.19-.26,0-.22.35-.22.53,0h1.23l.54.07.64.36.56.29.56.33Z" transform="translate(-16.15 -59.12)"/><polygon class="cls-1" points="139.44 80.36 140.2 80.46 140.79 80.33 141.01 79.9 141.11 79.41 141.37 79.18 141.96 79.15 143 79.15 143.67 79.28 144.38 79.74 145.6 79.87 146.12 79.64 146.78 79.58 147.27 79.84 148.01 79.87 148.6 79.61 148.93 79.18 149.18 78.66 149.61 77.97 149.93 77.22 150.47 76.33 150.75 75.74 151.63 75.61 152.32 76.55 152.61 78.14 153.12 79.37 153.71 80.45 154.46 81.03 154.87 81.32 154.63 82.48 153.82 83.42 152.85 84.57 151.62 85.58 151.53 86.38 150.46 87.39 149.48 87.83 148.82 88.05 148.74 88.62 149.39 88.84 150.29 88.76 151.11 88.33 151.85 88.05 152.5 87.9 153.16 87.83 153.66 87.32 153.66 86.67 153.66 86.09 153.66 85.44 155.38 85.51 156.61 85.51 157.43 85.44 157.91 85.88 157.91 86.38 157.5 87.03 157.01 87.61 156.35 88.26 156.02 88.62 155.85 89.06 156.17 89.34 157.16 89.13 157.82 88.62 158.39 88.41 158.81 87.75 159.22 87.1 160.12 86.81 161.51 86.81 162.98 87.32 164.61 87.9 165.92 88.48 166.98 89.13 167.13 89.49 166.87 90.36 166.62 91.15 167.09 91.95 167.75 91.87 168.41 91.37 169.07 91.01 170.22 90.79 171.53 90.79 172.43 91.22 174.13 91.8 175.6 91.95 177 91.8 178.06 91.73 180.25 93.11 182.42 94.77 183.78 95.93 184.91 96.51 186.13 96.79 187.44 96.87 188.17 97.16 189.12 98.83 189.31 100.71 189.62 103.61 188.89 105.72 186.83 108.06 184.94 109.74 183.89 111.2 183.14 112.81 182.68 113.77 182.06 114.57 181.54 114.94 181.4 114.5 181 114.28 180.43 114.21 180.28 115.23 179.98 116.19 180.14 117.59 180.34 120.61 179.78 123.65 179.49 126.25 178.85 126.85 178.72 127.45 178.69 128.72 178.56 130.14 178.16 130.82 177.19 132.25 176.63 133 175.95 133.98 175.62 134.73 175.37 135.64 174.94 136.55 174.23 137.01 173.53 137.39 173.19 138.22 172.8 138.75 170.98 138.53 170.14 138.53 169.18 138.91 167.82 139.06 167.05 139.21 166.38 139.98 165.43 140.28 164.79 140.74 163.83 141.04 162.72 141.2 161.05 142.58 159.66 143.65 159 144.19 158.22 144.34 157.69 145.11 157.72 147.28 158.14 148.91 158.02 150.78 157.54 152.11 156.41 153.28 155.25 154.54 154.56 155.57 154.24 156.36 153.73 158.1 153.42 158.82 152.28 160.18 151.23 161.13 149.81 162.1 149.38 162.9 149.13 163.63 148.26 164.44 147.73 165.24 147.39 165.81 147 165.3 146.61 164.77 146.62 164.29 146.9 163.72 147.06 163.28 146.97 162.64 146.49 162.02 145.15 160.9 143.74 159.75 143.22 159.23 142.56 158.62 142.07 158.5 141.02 158.12 140.54 157.63 140.31 157.22 139.59 156.64 139.08 156.24 138.18 155.72 138.53 155.32 139.86 153.78 141.3 152.06 142.15 151.22 143.5 150.31 144.8 149.61 146.17 148.76 146.38 147.44 146.38 146.2 146.28 145.87 146.12 145.48 145.83 145.23 145.61 145.16 144.97 145.05 144.66 144.97 144.72 144.72 144.78 144.53 144.82 144.22 144.8 143.85 144.78 143.34 144.81 142.84 144.84 142.56 145.13 141.24 145.02 140.96 144.74 140.79 144.26 140.79 143.45 141.04 142.71 141.08 142.52 140.83 142.39 140.56 142.28 140.33 142.29 139.94 142.32 139.68 142.37 139.21 142.1 138.81 141.6 138.7 141.11 138.77 140.49 138.91 139.73 139.07 138.89 139.09 138.14 139.04 137.7 138.97 137.4 138.82 137.26 138.65 137.19 138.44 137.08 138.19 137.22 137.78 137.22 137.53 137.19 137.28 137.14 136.97 137.07 136.6 136.98 136.14 137.02 135.75 137.09 135.05 137.13 134.7 137.16 134.29 137.19 133.68 137.08 133.38 136.99 133.31 136.82 133.24 136.86 133.03 136.63 132.57 136.46 132.19 136.48 131.61 136.23 131.02 136.88 129.86 137.24 129.22 137.32 128.77 137.31 127.67 137.44 126.47 137.06 125.74 136.47 125.36 135.69 125.02 135.47 124.46 135.58 123.63 135.45 122.66 133.35 122.65 131.85 122.68 131.59 122.37 131.58 122.01 131.5 121.51 131.53 120.94 131.32 120.7 131.03 120.3 131.03 120.06 131.1 119.79 131.28 119.55 131.45 119.33 131.44 118.95 131.32 118.69 131.12 118.33 131.03 117.47 130.75 116.82 130.28 116.48 129.65 116.15 127.73 116.07 127.48 115.81 127.46 115.62 127.21 115.52 126.87 115.49 126.67 115.42 126.46 115.38 126.24 115.18 125.97 115.16 125.59 114.92 125.34 114.7 125.25 114.51 124.86 114.39 124.69 114.38 124.52 114.34 124.17 114.1 123.93 113.96 123.47 114 123.25 114.1 123 114.09 122.75 114.02 122.41 113.95 122.11 113.85 122.03 113.64 121.9 113.42 121.62 113.23 121.29 113.01 121.03 112.86 120.64 112.62 120.52 112.26 120.42 112.23 120.33 112.23 120.24 112.12 120.25 111.94 120.22 111.84 120.11 111.7 119.99 111.51 119.87 111.36 119.81 111.14 119.84 110.9 119.97 110.69 120 110.49 120.01 110.28 120 110.1 119.93 110.01 119.83 109.9 119.73 109.59 119.74 109.32 119.81 109.09 119.96 108.87 120.03 108.67 120.11 108.38 120.12 107.99 119.97 107.6 119.71 107.53 119.13 107.55 117.97 107.57 117.06 107.7 116.36 107.96 115.83 108.28 115.41 108.53 114.71 108.96 114.08 109.4 113.3 109.54 112.84 110.13 112.48 110.42 112.04 110.51 111.76 110.39 111.27 110.23 110.62 110.23 110.24 110.23 109.54 110.23 108.19 110.22 107.49 110.05 107.67 106.65 107.22 106.84 106.8 107.25 106.36 107.62 105.92 108.03 105.69 108.04 105.34 108.03 105.07 108.03 104.64 108.01 104.26 107.96 103.98 107.74 103.92 107.47 103.75 107.13 103.34 106.86 102.87 106.72 102.33 106.61 102.19 106.26 102.18 105.8 101.72 105.14 101.11 104.36 100.03 102.66 100.15 101.66 100.52 100.59 100.94 100.31 101.51 99.97 101.6 99.51 101.62 98.99 101.64 98.42 101.97 97.78 102.21 97.02 103.31 96.14 104.92 95.33 106.29 94.78 107.31 94.66 107.99 94.66 108.75 94.69 109.03 94.47 109.19 93.97 109.42 92.65 109.99 89.07 110.04 87.39 109.95 86.58 109.58 86.01 108.89 85.52 108.72 84.46 108.72 83.89 108.92 83.59 109.3 83.5 109.91 83.49 110.47 83.39 110.62 83.14 110.59 82.78 110.38 82.5 110.14 82.45 109.79 82.45 109.54 82.46 109.18 82.31 109.18 81.96 109.3 80.95 111.98 80.86 113.81 80.75 114.07 80.6 114.6 80.33 115.41 80.29 115.44 80.5 115.57 80.87 115.89 81.92 116.75 82.7 117.42 83.06 118.07 83.13 118.32 82.98 118.81 82.89 119.16 83.03 119.44 83.01 120.54 82.23 121.47 81.66 121.92 81.43 122.28 81.24 122.6 81.01 122.94 80.64 123.24 80.4 123.6 80.17 123.86 80 124.03 79.76 123.88 79.54 123.37 79.31 123.05 79.19 122.62 78.8 122.5 78.48 122.4 78.03 122.31 77.67 122.25 77.27 122.2 76.99 122.04 76.58 121.88 76.36 121.61 76.09 121.29 75.82 121.21 75.67 121.24 75.28 121.4 75.12 121.73 75.03 122.34 75.25 122.88 75.57 123.19 75.71 123.89 76.08 124.33 76.24 124.68 76.45 124.99 76.6 125.27 76.55 125.63 76.23 125.79 75.77 126.1 75.51 126.69 75.37 127.13 75.35 127.64 75.35 128.36 75.07 129.05 74.71 129.57 74.39 130.32 73.95 130.57 73.3 130.39 73 131.2 73.08 131.8 73.19 131.84 73.48 131.93 73.94 132.17 74.46 132.51 74.69 132.94 75.15 132.99 75.71 132.81 76.17 132.49 76.69 131.93 77.94 131.95 78.92 132.26 79.9 132.68 80.59 133.24 81.18 133.99 81.93 134.73 82 135.06 81.9 135.32 81.51 135.69 81.34 136.09 81.25 136.87 81.18 137.57 80.59 138.38 80.36 139.16 80.33 139.44 80.36"/><polygon class="cls-1" points="105.7 57.63 105.19 57.73 104.54 58 103.95 58.55 102.46 60.57 102.05 61.9 101.79 62.94 101.44 63.26 101.65 63.68 102.3 63.95 102.75 64.37 103.36 65.63 103.33 66.15 103.27 66.71 103.28 67.47 103.95 68.39 104.31 68.66 107.31 68.59 108.31 68.82 108.85 69.13 109.1 69.59 109.58 70.09 109.98 70.62 110.12 70.85 112.61 70.67 113.58 70.48 114.08 70.46 114.44 70.53 114.76 70.87 114.83 71.12 114.85 71.39 114.83 71.65 114.73 72 114.58 72.3 114.46 72.57 114.39 72.79 114.38 73.05 114.31 73.4 114.26 73.64 114.27 73.89 114.2 74.39 114.17 74.58 114.23 74.83 114.35 75.12 114.36 75.39 114.37 75.62 114.57 75.96 114.75 76.24 114.93 76.5 115.03 76.75 115.08 76.97 114.78 77.27 114.37 77.64 114.15 78.03 114 78.22 114.14 78.5 114.55 78.73 114.72 78.82 114.93 78.94 115.11 79.11 115.3 79.36 115.38 79.61 115.39 80.05 115.41 80.29 114.6 80.33 114.07 80.6 113.81 80.75 111.98 80.86 109.3 80.95 109.18 81.96 109.18 82.31 109.54 82.46 109.79 82.45 110.14 82.45 110.38 82.5 110.59 82.78 110.62 83.14 110.47 83.39 109.91 83.49 109.3 83.5 108.92 83.59 108.72 83.89 108.72 84.46 108.89 85.52 109.58 86.01 109.95 86.58 110.04 87.39 109.99 89.07 109.42 92.65 109.19 93.97 108.68 94.1 108.2 93.91 107.85 93.7 107.55 93.35 107.62 93.03 107.78 92.6 108.1 92.07 108.44 91.7 108.78 91.33 108.78 91.08 108.67 90.95 108.37 90.71 108.1 90.58 107.59 90.36 107.2 90.34 106.87 90.47 106.47 90.5 106.02 90.47 105.81 90.31 105.58 90.18 104.97 90.45 104.75 90.66 104.57 90.82 104.27 90.84 103.81 90.79 103.45 90.77 103 90.71 102.58 90.58 102.22 90.36 102.14 90.15 102.03 89.62 101.97 89.38 101.76 89.3 101.49 89.19 101.25 89.01 101.11 88.64 100.99 88.34 100.78 88.15 100.51 87.97 100.21 87.78 99.79 87.54 99.55 87.22 99.47 86.85 99.26 86.5 98.93 86.13 98.51 85.84 98.14 85.63 97.84 85.46 97.18 85.2 96.85 85.14 96.31 84.91 96 84.77 95.67 84.58 95.37 84.38 94.98 84.21 94.53 84.11 94.16 84.03 93.68 84.08 93.05 84.13 92.72 84.16 92.36 84.11 92.02 84 91.78 83.73 91.54 83.42 91.3 83.1 90.96 82.88 90.6 82.86 89.93 82.56 89.2 82.14 88.53 81.78 88.68 81.32 88.67 80.81 89.16 80.53 89.22 79.81 89.62 79.44 90.68 79.16 91.62 77.78 92.08 74.88 92.23 71.12 91.75 69.81 91.13 69.02 90.6 68.29 91 67.88 91.45 67.5 91.82 67.03 92.04 66.64 92.16 65.85 92.05 65.31 92.77 66.11 93.25 66.11 93.53 65.23 93.9 64.65 94.61 64.21 95.56 63.7 95.93 63.12 96.02 62.17 96.44 61.15 97.01 60.13 97.63 59.69 98.3 59.76 98.72 59.91 99.19 59.62 99.63 58.96 100.35 58.81 101.34 58.81 102.53 58.23 103.37 57.56 104.13 56.91 104.82 56.32 105.38 56.1 105.83 56.47 105.95 56.98 105.7 57.63"/><polygon class="cls-1" points="449.88 1.1 450.46 2 450.92 2.45 451.2 3.12 451.38 3.78 451.64 4.56 452.13 5.34 452.28 6.12 452.22 6.78 451.19 7.11 450.31 7.33 450.71 8.98 451.4 9.96 452.07 11.06 452.92 11.93 453.84 12.47 454.67 12.91 455.53 13.24 455.9 13.17 455.35 13.84 454.94 14.14 454.56 14.39 454.2 14.81 454.07 15.42 453.97 16.15 454.05 16.69 454.42 17.11 455.08 17.36 455.69 17.6 456.55 18.14 457.73 18.75 458.89 19.41 459.38 19.89 460.22 20.25 461.24 20.37 462.59 20.43 463.31 20.43 463.94 20.55 464.44 20.91 464.87 21.39 465.33 21.69 466.46 21.87 467.44 22.17 468.56 22.41 469.19 22.52 470.13 22.64 470.85 22.64 471.5 22.64 472.16 22.58 472.75 22.28 472.56 21.63 472.47 21.15 472.42 20.79 472.4 20.25 472.51 19.77 472.74 18.69 473.55 18.84 474.1 19.48 474.08 20.01 473.98 20.49 474 20.97 474.04 21.39 474.29 21.75 474.86 21.81 475.58 21.81 476.23 22.11 476.7 22.05 477.36 21.98 478.02 21.93 478.96 21.81 479.88 21.75 480.73 21.75 481.13 21.69 481.49 21.27 481.46 21.09 481.49 20.67 481.29 20.43 481.07 20.25 480.86 20.01 480.83 18.95 481.69 19.27 482.86 18.73 484.08 17.98 485.68 16.69 487.71 15.61 488.78 15.51 490.47 15.29 490.99 15.94 491.76 16.59 492.58 17.01 493.16 17.45 493.92 17.66 493.58 18.68 493.44 18.99 493.13 19.41 493.02 19.89 493.18 20.31 492.95 20.97 492.79 21.09 492.14 20.79 491.76 20.49 491.3 20.49 490.95 20.61 490.17 21.15 489.42 21.87 488.81 22.52 488.25 23.3 487.95 24.08 487.77 24.91 487.08 26.39 486.77 27.34 486.18 28.11 485.3 28.69 484.68 28.93 484.19 29.52 484.08 30.52 484.15 31.64 484.02 32.81 483.45 33.51 483.1 34.09 482.77 33.33 482.49 32.34 482.43 31.93 482.46 31.34 482.49 30.81 482.49 30.4 482.19 29.87 481.83 29.75 481.47 29.93 481.2 30.4 480.81 30.81 480.48 30.87 480.12 30.7 479.86 30.28 479.82 29.75 479.96 28.93 480.71 28.34 481.34 27.69 481.93 26.93 482.25 26.21 482.14 25.8 480.17 25.98 478.53 26.04 477.5 26.04 476.88 25.86 476.54 25.32 476.38 24.49 476.01 23.78 475.28 23.54 474.71 23.12 474.05 22.88 472.98 22.7 472.84 23.06 472.86 23.6 473.22 24.08 473.69 24.61 473.98 25.14 473.8 25.74 473.34 26.09 472.84 26.33 472.34 26.98 472.48 27.69 472.82 28.4 473.22 29.05 473.75 29.75 474.19 30.64 474.63 31.52 474.9 32.22 474.87 33.21 474.61 34.25 473.98 34.25 473.54 34.48 472.84 34.33 472.54 33.76 472.09 34.02 471.79 34.4 471.04 34.74 470.18 34.93 469.81 35.2 469.59 35.99 469.5 37.35 468.68 38.29 466.95 39.16 466.01 39.69 464.86 40.96 462.87 43.09 460.76 44.58 459.84 45.07 459.38 45.44 459.13 46.26 458.86 46.93 458.05 47.19 456.92 47.34 456.59 47.75 456.25 48.26 455.65 48.48 454.98 48.56 454.58 48.86 454.34 49.27 454.11 50.01 454.26 51.15 454.27 52.59 454.3 53.29 454.42 53.91 454.4 55.17 454.54 56.16 453.73 57.19 453.56 57.81 453.33 58.8 453.47 59.27 453.56 59.75 453.52 60.41 453.39 61.21 452.85 61.47 452.38 61.62 451.75 62.64 451.24 63.77 450.56 64.28 450.22 64.5 449.88 64.9 449.52 65.49 449.22 65.74 448.95 66.14 448.53 66.36 448.12 66.43 447.56 66.14 446.72 65.52 445.85 63.84 445.5 62.57 445.23 61.44 444.54 59.86 444.1 58.29 442.66 56.27 441.98 54.1 441.5 52.7 440.8 50.93 439.64 48.86 439.04 47.59 438.76 45.96 438.46 44.17 437.91 42.49 437.82 40.88 437.67 39.87 437.35 39.35 437.08 38.71 437.15 37.92 437.48 37.54 437.73 37.16 437.75 36.56 437.37 36.14 437.16 35.73 437.13 35.23 437.29 34.86 437.36 34.52 436.91 34.02 436.96 33.61 436.92 33.15 436.64 33 436.14 32.96 435.75 33.15 435.41 33.57 435.58 34.02 435.81 34.21 435.84 34.74 435.77 34.97 435.34 35.5 435.03 35.73 434.68 35.95 434.23 36.26 433.65 36.59 433.26 36.75 432.63 36.75 431.93 36.26 431 35.46 430.08 34.59 428.82 33.3 428.72 33.11 429.85 33.07 430.34 32.81 431.19 32.28 431.87 31.78 432.14 31.13 431.56 31.09 430.59 31.52 429.94 31.71 429.19 31.71 428.27 31.29 427.18 29.61 426.68 29.14 427.33 28.69 427.64 28.28 428.01 27.93 428.99 27.87 429.37 27.93 430.15 28.34 430.75 28.28 431.27 27.75 431.94 27.57 432.47 27.93 432.92 27.99 433.29 27.1 432.99 26.51 432.4 25.68 432.18 25.02 431.81 24.49 431.28 24.19 431.14 23.84 431.21 23.36 431.1 22.88 430.63 22.58 430.29 22.28 429.96 21.93 429.82 21.57 429.85 21.03 430.3 20.31 430.71 19.83 431.21 19.23 431.63 19.05 432.07 19.17 432.34 19.47 433.29 19.59 434.2 19.29 434.55 19.17 435.1 18.63 435.41 18.02 435.85 17.42 436.55 16.87 437.4 16.21 437.72 15.91 438.17 15.3 438.31 14.63 438.59 13.9 439.12 13.59 439.67 13.17 439.97 12.68 440.26 12.25 440.82 11.82 441.42 11.21 441.52 10.78 441.42 10.35 441.53 9.61 441.86 9.05 442.59 8.5 443.05 7.94 442.35 7.32 441.71 6.95 441.1 6.45 440.45 5.89 440.27 5.27 440.45 4.33 440.36 3.65 440.07 2.45 440.64 1.82 441.44 1.57 442.81 1.7 443.69 1.89 445.1 1.89 445.9 1.64 446.7 1.39 447.48 1 448.22 0.75 449.24 0.43 449.88 1.1"/><polygon class="cls-1" points="10.22 8.98 11.66 9.45 13.1 9.95 14.35 10.36 15.98 10.47 19.63 10.45 20.67 10.24 20.9 10.09 21.1 9.79 21.18 9.55 21.5 9.34 21.94 9.32 22.55 9.32 23.25 9.36 24.26 9.39 24.99 9.46 25.22 9.53 25.38 9.62 25.54 9.71 25.68 9.79 25.76 9.93 25.83 10.03 25.94 10.17 26.03 10.29 26.2 10.41 26.38 10.52 26.58 10.6 26.69 10.68 26.84 10.83 26.99 10.97 27.11 11.09 27.18 11.16 27.38 11.31 27.56 11.52 27.66 11.66 27.82 11.79 27.95 11.91 28.11 12.02 28.23 12.09 28.41 12.15 28.52 12.22 28.68 12.35 28.83 12.48 28.93 12.62 29.05 12.78 29.15 12.93 29.24 13.08 29.33 13.28 29.46 13.45 29.56 13.58 29.6 13.77 29.59 13.87 29.53 14.04 29.55 14.18 29.61 14.3 29.69 14.53 29.81 14.7 29.86 14.92 30.01 15.04 30.11 15.14 30.29 15.26 30.45 15.35 30.6 15.43 30.78 15.62 30.88 15.69 31.03 15.77 31.25 15.88 31.5 16.01 31.69 16.1 31.86 16.18 32.01 16.25 32.16 16.32 32.29 16.4 32.46 16.52 32.58 16.63 32.78 16.69 32.85 16.69 33.08 16.64 33.19 16.59 33.29 16.54 33.39 16.45 33.48 16.37 33.53 16.3 33.58 16.2 33.61 16.11 33.66 16.03 33.74 15.93 33.8 15.79 33.84 15.69 33.91 15.47 33.97 15.41 34 15.33 34.06 15.18 34.09 15.07 34.12 14.97 34.16 14.87 34.24 14.78 34.29 14.75 34.47 14.73 34.6 14.68 34.74 14.64 34.83 14.58 34.94 14.49 35.02 14.46 35.13 14.46 35.24 14.51 35.37 14.58 35.56 14.61 35.75 14.61 35.93 14.61 36.12 14.63 36.39 14.68 36.63 14.68 36.84 14.7 36.97 14.71 37.12 14.76 37.24 14.87 37.36 14.97 37.49 15.13 37.6 15.23 37.7 15.35 37.84 15.41 37.95 15.48 38.03 15.53 38.09 15.62 38.2 15.74 38.39 15.88 38.62 16.06 38.73 16.18 38.83 16.42 38.86 16.61 38.9 16.74 38.97 16.86 39.06 17.01 39.15 17.13 39.19 17.27 39.24 17.41 39.34 17.54 39.5 17.8 39.56 18.04 39.66 18.27 39.75 18.41 39.82 18.56 39.99 18.65 40.13 18.7 40.25 18.85 40.34 19 40.49 19.17 40.57 19.37 40.61 19.49 40.69 19.64 40.81 19.76 41 19.91 41.16 20 41.37 20.15 41.48 20.3 41.59 20.47 41.65 20.62 41.69 20.81 41.69 20.99 41.68 21.13 41.63 21.25 41.6 21.4 41.65 21.58 41.71 21.7 41.81 21.83 41.91 21.93 42 22.07 42.07 22.22 42.14 22.34 42.23 22.49 42.35 22.86 42.44 23.01 42.54 23.03 42.73 23.08 42.91 23.13 43.05 23.19 43.17 23.26 43.3 23.33 43.44 23.38 43.63 23.41 43.8 23.45 43.93 23.53 44.09 23.66 44.23 23.83 44.53 23.93 44.72 23.95 45 23.92 45.18 23.92 45.89 24.06 46.2 24.12 46.18 24.89 45.61 26.35 44.98 28.88 44.87 31.55 45.45 34.06 46.24 35.95 46.89 37.61 47.6 38.29 48.11 39.19 48.77 40.02 49.1 40.46 49.37 40.99 50.19 41.36 51.07 41.66 51.61 41.88 52.2 42.41 52.82 42.63 54.41 42.71 55.4 42.18 57.19 41.96 59.25 41.88 60.09 41.88 60.35 41.06 61.06 40.39 61.58 39.56 61.76 38.74 62.06 38.06 62.12 37.01 62.44 36.03 63.13 35.65 64.49 35.35 65.72 35.2 67.17 34.89 68.21 34.66 69.38 34.66 70.13 35.12 70.49 35.73 70.03 36.48 68.89 38.06 68.8 39.41 68.65 40.46 68.21 41.29 67.8 41.92 67.29 41.74 67.03 41.82 66.86 41.95 66.44 42.22 66.27 42.4 66.05 42.88 65.79 43.14 65.24 43.14 64.85 43.54 64.22 43.57 60.96 43.51 60.79 43.51 60.77 43.81 60.81 44.11 60.78 44.63 60.49 44.99 59.9 45.05 59.73 45.08 60.52 45.62 60.98 45.8 61.34 46.07 61.78 46.55 62.01 47 62.09 47.36 61.12 47.63 60.47 47.57 59.63 47.57 59.21 47.66 58.89 47.99 58.56 48.35 58.48 48.71 58.48 49.25 58.21 50.05 57.85 51.26 55.77 49.1 54.58 48.29 53.31 47.62 52.35 47.25 51.52 47.25 50.04 47.84 49.37 48.29 48.64 48.43 47.33 48.51 46.23 48.36 45.28 48.06 43.67 47.32 42.3 46.58 41.33 46.21 38.84 45.24 37.37 44.42 36.53 43.9 35.66 43.68 33.66 43.16 31.6 41.96 30.38 40.84 28.89 40.02 28.26 39.41 27.55 38.81 26.97 37.99 27.11 37.46 27.92 36.93 28.14 35.57 28.07 34.81 27.44 33.83 26.61 31.93 25.19 30.41 23.84 28.88 22.67 27.81 21.94 27.2 21.5 26.43 20.86 25.58 20.03 25.04 19.04 24.5 18.7 24.19 18.69 23.57 18.96 23.03 18.9 22.57 18.24 22.02 17.66 21.79 16.99 21.25 16.61 20.86 15.62 19.84 15.3 19.38 14.45 18.83 13.76 18.28 12.88 17.18 12.16 16.55 11.52 15.69 10.79 14.35 10.4 13.32 9.98 12.21 9.99 11.57 9.83 10.93 9.09 10.38 8.39 10.13 7.91 9.97 7 9.66 6.24 9.26 5.72 9.26 5.71 10.69 6.08 12.29 6.34 13.39 6.84 14.5 8.17 15.61 9.38 16.87 10.04 17.81 10.59 18.44 10.93 19.22 11.23 20.15 12.78 21.56 13.59 22.57 14.1 23.73 14.39 24.73 14.84 25.73 15.18 26.35 15.45 27.12 15.76 27.73 16.51 28.42 16.99 28.65 17.58 29.04 17.96 29.57 18.26 30.18 18.34 30.87 18.09 31.25 17.74 31.55 17.24 31.55 16.77 31.32 16.43 30.56 16.2 29.95 15.59 29.49 14.96 28.96 14.15 28.35 13.53 27.89 12.94 27.5 12.16 26.73 11.83 25.81 12.1 24.96 12.04 24.19 11.71 23.34 10.99 22.64 10.18 22.18 9.43 21.95 8.81 21.87 8.09 21.71 7.38 21.32 6.48 20.62 5.66 19.92 5.44 19.53 5.67 19.45 6.15 19.61 6.79 20 7.48 20.31 7.84 20.39 7.67 19.61 7.49 19.06 7.71 18.44 7.69 17.89 7.5 17.34 6.86 16.71 5.93 16 5.31 15.45 4.68 14.9 4.03 14.27 3.07 12.44 2.4 11.41 1.94 10.69 1.35 9.26 0.77 7.89 0.56 7.41 1.73 7.34 3.43 7.15 5.13 7.12 6.22 7.5 7.17 7.93 8.94 8.4 10.22 8.98"/><polygon class="cls-1" points="366.08 75.76 365.89 76.44 365.06 77.46 364.32 78.19 364.01 78.72 364.02 83.75 363.97 85.95 364.06 87.08 364.67 87.65 365.54 88.86 364.81 89.51 364.04 90.09 363.35 91.03 362.77 91.28 362.29 92.51 361.81 93.35 361.09 94.69 360.16 95.77 358.62 94.81 357.4 94.13 356.49 93.03 356.39 92.39 356.13 91.9 355.48 91.4 353.2 90.08 347.9 87.28 347.86 84.7 348.12 84.13 348.68 83.19 349.11 82.62 349.67 81.86 350.01 81.41 350.19 80.88 350.23 80.42 350.24 79.86 349.99 78.79 349.53 77.96 349.24 77.39 349.03 76.9 348.82 76.37 348.57 75.99 348.03 75.3 348.46 74.93 349.02 74.62 349.97 74.58 350.83 74.43 352.38 74.24 352.97 74.85 353.74 74.85 354.43 74.74 355.11 74.81 355.62 75.12 356.39 75.53 357.19 76.22 357.61 76.56 358.04 76.63 359.11 76.75 360.14 76.9 360.95 76.94 361.38 76.94 361.9 76.25 362.43 75.72 362.95 75.34 363.56 75.23 364.11 75.3 364.58 75.72 365.09 75.84 366.08 75.76"/><polygon class="cls-1" points="357.95 51.34 358.33 51.69 358.98 51.53 359.56 51.26 360.04 51.23 360.8 51.41 361.37 51.45 362.14 51.53 362.61 51.65 363.32 52.23 365.05 54 366.05 54.77 366.67 55.35 367.11 56.08 367 56.58 366.8 57.08 366.57 57.5 366.12 57.85 365.89 58.27 365.88 58.54 365.86 59 365.89 59.46 366.18 59.65 366.74 59.65 367.43 59.65 368.19 60.07 368.08 60.65 368.35 61.37 368.81 61.98 369.34 62.71 370.17 63.44 370.97 64.2 371.69 64.55 372.92 64.89 374.24 65.42 375.47 65.73 376.41 66 377.05 66.3 377.86 66.49 378.5 66.57 379.31 66.72 380.13 66.72 379.73 67.17 378.88 68.09 377.65 69.19 375.1 71.4 374.57 72.04 374.08 72.61 373.65 72.99 372.99 73.29 372.52 73.52 371.83 73.71 370.8 73.86 369.8 73.98 369.11 74.24 368.55 74.7 367.8 75.23 367.2 75.42 366.08 75.76 365.09 75.84 364.58 75.72 364.11 75.3 363.56 75.23 362.95 75.34 362.43 75.72 361.9 76.25 361.38 76.94 360.95 76.94 360.14 76.9 359.11 76.75 358.04 76.63 357.61 76.56 357.19 76.22 356.39 75.53 355.62 75.12 355.11 74.81 354.43 74.74 353.74 74.85 352.97 74.85 352.38 74.24 352.23 72.65 351.68 72.61 351.21 72.5 350.82 72.16 350.49 71.66 350.37 71.09 350.21 70.64 350.05 70.22 349.71 69.84 349.46 69.5 349.08 69.31 348.65 69 348.32 68.5 348.07 68.16 347.48 67.59 346.63 67.25 345.95 66.91 346 66.34 346.15 65.69 346.75 65.73 348.17 65.73 348.43 64.01 348.33 62.79 348.69 60.8 348.75 60.26 349.27 60.11 349.92 60.07 350.19 59.61 350.3 59.08 350.58 58.42 350.86 57.66 351.19 57.01 351.47 56.54 352.1 55.81 352.67 55.5 353.03 55.16 353.18 54.7 353.33 54.04 353.57 53.54 353.81 52.96 353.82 51.88 355.94 51.84 356.48 51.45 356.76 51.03 357.37 50.88 357.71 50.99 357.95 51.34"/><polygon class="cls-1" points="60.96 43.51 64.22 43.57 64.85 43.54 64.96 44.57 64.91 45.17 64.92 45.77 64.93 46.34 64.91 47.15 64.81 47.78 65.01 47.99 65.46 48.08 65.89 48.14 67.11 48.39 66.82 48.97 66.35 49.41 65.62 49.84 65.29 50.24 65.03 50.67 65.03 50.85 64.71 51.34 64.45 51.73 63.61 52.33 62.9 53.2 62.33 53.01 61.23 52.79 60.31 52.72 59.38 52.5 58.48 51.91 57.85 51.26 58.21 50.05 58.48 49.25 58.48 48.71 58.56 48.35 58.89 47.99 59.21 47.66 59.63 47.57 60.47 47.57 61.12 47.63 62.09 47.36 62.01 47 61.78 46.55 61.34 46.07 60.98 45.8 60.52 45.62 59.73 45.08 59.9 45.05 60.49 44.99 60.78 44.63 60.81 44.11 60.77 43.81 60.79 43.51 60.96 43.51"/><polygon class="cls-1" points="77.88 60.2 78.09 61 79.91 62.91 79.36 63.26 79.14 63.49 79.12 63.76 79.21 64.09 79.43 64.44 79.42 64.91 79.35 65.26 79.27 65.68 79.13 65.96 78.3 65.82 77.6 65.23 77.48 64.65 77.26 63.92 76.65 63.41 75.8 63.05 75.17 62.39 74.89 61.95 74.63 61.88 74.48 62.03 74.34 62.39 73.97 62.76 73.29 62.53 73.09 62.1 72.56 61.66 72.36 61.3 72.48 60.79 72.86 60.49 72.97 59.83 72.82 59.4 72.74 59.18 72.59 59.01 73.25 59.13 74.02 58.99 74.36 58.91 74.87 59.08 75.13 59.43 76.02 59.86 76.36 59.99 76.66 60.2 76.88 60.29 77.17 60.42 77.56 60.37 77.88 60.2"/></g><g id="Layer_2" data-name="Layer 2"><path class="cls-2" d="M163.51,174.14,158,162.45a6.19,6.19,0,0,1,5.61-8.83h0a6.19,6.19,0,0,1,5.56,8.92Z" transform="translate(-16.15 -59.12)"/><g id="_Группа_" data-name="&lt;Группа&gt;"><path class="cls-2" d="M371.08,143.56l-5.49-11.69A6.19,6.19,0,0,1,371.2,123h0a6.19,6.19,0,0,1,5.56,8.92Z" transform="translate(-16.15 -59.12)"/></g><path class="cls-2" d="M377.06,125.05l-5.49-11.69a6.19,6.19,0,0,1,5.61-8.83h0a6.19,6.19,0,0,1,5.56,8.92Z" transform="translate(-16.15 -59.12)"/><path class="cls-2" d="M547,145.51l-5.49-11.69a6.19,6.19,0,0,1,5.61-8.83h0a6.19,6.19,0,0,1,5.56,8.92Z" transform="translate(-16.15 -59.12)"/><path class="cls-2" d="M465.09,92.31,459.6,80.62a6.19,6.19,0,0,1,5.61-8.83h0a6.19,6.19,0,0,1,5.56,8.92Z" transform="translate(-16.15 -59.12)"/><path class="cls-2" d="M116.08,135.79,110.6,124.1a6.19,6.19,0,0,1,5.61-8.83h0a6.19,6.19,0,0,1,5.56,8.92Z" transform="translate(-16.15 -59.12)"/><path class="cls-2" d="M93.68,120.42l-5.49-11.69A6.19,6.19,0,0,1,93.8,99.9h0a6.19,6.19,0,0,1,5.56,8.92Z" transform="translate(-16.15 -59.12)"/><path class="cls-2" d="M78.68,107.21,73.19,95.52A6.19,6.19,0,0,1,78.8,86.7h0a6.19,6.19,0,0,1,5.56,8.92Z" transform="translate(-16.15 -59.12)"/><path class="cls-2" d="M47.5,85.52,42,73.83A6.19,6.19,0,0,1,47.61,65h0a6.19,6.19,0,0,1,5.56,8.92Z" transform="translate(-16.15 -59.12)"/></g></g></svg>