<svg xmlns="http://www.w3.org/2000/svg" xmlns:xlink="http://www.w3.org/1999/xlink" viewBox="0 0 650 364.2"><title>пипки_1</title><g id="Слой_2" data-name="Слой 2">
    <g id="Layer_2" data-name="Layer 2">
        <g class="india selected">
            <path class="india hover" d="M165,174.14l-5.49-11.69a6.19,6.19,0,0,1,5.61-8.83h0a6.19,6.19,0,0,1,5.56,8.92Z" style="fill:#753766"/><g id="_Группа_" data-name="&lt;Группа&gt;"><path d="M372.58,143.56l-5.49-11.69A6.19,6.19,0,0,1,372.7,123h0a6.19,6.19,0,0,1,5.56,8.92Z" style="fill:#753766"/></g><path d="M378.56,125.05l-5.49-11.69a6.19,6.19,0,0,1,5.61-8.83h0a6.19,6.19,0,0,1,5.56,8.92Z" style="fill:#753766"/><path d="M548.53,145.51,543,133.83a6.19,6.19,0,0,1,5.61-8.83h0a6.19,6.19,0,0,1,5.56,8.92Z" style="fill:#753766"/><path d="M466.59,92.31,461.1,80.62a6.19,6.19,0,0,1,5.61-8.83h0a6.19,6.19,0,0,1,5.56,8.92Z" style="fill:#753766"/><path d="M117.58,135.79,112.1,124.1a6.19,6.19,0,0,1,5.61-8.83h0a6.19,6.19,0,0,1,5.56,8.92Z" style="fill:#753766"/><path d="M95.18,120.42l-5.49-11.69A6.19,6.19,0,0,1,95.3,99.9h0a6.19,6.19,0,0,1,5.56,8.92Z" style="fill:#753766"/><path d="M80.18,107.21,74.69,95.52A6.19,6.19,0,0,1,80.3,86.7h0a6.19,6.19,0,0,1,5.56,8.92Z" style="fill:#753766"/><path d="M49,85.52,43.51,73.83A6.19,6.19,0,0,1,49.11,65h0a6.19,6.19,0,0,1,5.56,8.92Z" style="fill:#753766"/><polygon points="484.69 61.69 484.69 83.63 473.48 83.63 467.24 92.31 459.77 83.63 422.01 83.63 422.01 61.69 484.69 61.69" style="fill:#f2f5f5"/>
            <text class="india hover" transform="translate(430.66 76.43)" style="font-size:11px;fill:#d64636;font-family:RobotoSlab-Bold, Roboto Slab;font-weight:700;letter-spacing:0.07998934659090909em">ИНДИЯ</text>
        </g>
        <g class="ethiopia selected">
            <polygon class="ethiopia hover" points="414.93 86.13 414.93 108.06 383.72 108.06 377.48 116.74 370.01 108.06 332.26 108.06 332.26 86.13 414.93 86.13" style="fill:#f2f5f5"/>
            <text class="ethiopia hover" transform="translate(340.9 100.87)" style="font-size:11px;fill:#d64636;font-family:RobotoSlab-Bold, Roboto Slab;font-weight:700;letter-spacing:0.07998934659090909em">ЭФИОПИЯ</text>
        </g>
        <g class="kenia selected">
            <polygon class="kenia hover" points="393.09 118.04 393.09 139.97 381.88 139.97 375.64 148.66 368.17 139.97 330.41 139.97 330.41 118.04 393.09 118.04" style="fill:#f2f5f5"/>
            <text class="kenia hover" transform="translate(339.06 132.78)" style="font-size:11px;fill:#d64636;font-family:RobotoSlab-Bold, Roboto Slab;font-weight:700;letter-spacing:0.07998934659090909em">КЕНИЯ</text>
        </g>
        <g class="brasilia selected">
            <polygon class="brasilia hover" points="224.66 163.22 224.66 185.15 191.45 185.15 185.22 193.83 177.74 185.15 139.99 185.15 139.99 163.22 224.66 163.22" style="fill:#f2f5f5"/>
            <text class="brasilia hover" transform="translate(148.63 177.95)" style="font-size:11px;fill:#d64636;font-family:RobotoSlab-Bold, Roboto Slab;font-weight:700;letter-spacing:0.07998934659090909em">БРАЗИЛИЯ</text>
        </g>
        <g class="columbia selected"> 
            <polygon class="columbia hover" points="186 114.23 186 136.16 127.17 136.16 120.93 144.84 113.45 136.16 102.07 136.16 102.07 114.23 186 114.23" style="fill:#f2f5f5"/>
            <text class="columbia hover" transform="translate(108.28 128.96)" style="font-size:11px;fill:#d64636;font-family:RobotoSlab-Bold, Roboto Slab;font-weight:700;letter-spacing:0.06485262784090909em">КОЛУМБИЯ</text>
        </g>
        <g class="gvatemala selected"> 
            <polygon class="gvatemala hover" points="165.5 73 165.5 94.94 124.61 94.94 118.38 103.62 110.9 94.94 73.15 94.94 73.15 73 165.5 73" style="fill:#f2f5f5"/>
            <text class="gvatemala hover" transform="translate(81.8 87.74)" style="font-size:11px;fill:#d64636;font-family:RobotoSlab-Bold, Roboto Slab;font-weight:700;letter-spacing:0.07998934659090909em">ГВАТЕМАЛА</text>
        </g>
        <g class="mexico selected"> 
            <polygon class="mexico hover" points="95.83 49.7 95.83 71.63 52.62 71.63 46.38 80.31 38.9 71.63 15.15 71.63 15.15 49.7 95.83 49.7" style="fill:#f2f5f5"/>
            <text class="mexico hover" transform="translate(23.8 64.43)" style="font-size:11px;fill:#d64636;font-family:RobotoSlab-Bold, Roboto Slab;font-weight:700;letter-spacing:0.07998934659090909em">МЕКСИКА</text>
        </g>
        <g class="costa-rica selected">
            <polygon class="costa-rica hover" points="176.17 90.31 176.17 112.24 100.64 112.24 94.4 120.92 86.93 112.24 80.3 112.24 80.3 90.31 176.17 90.31" style="fill:#f2f5f5"/>
            <text class="costa-rica hover" transform="translate(88.94 105.05)" style="font-size:11px;fill:#d64636;font-family:RobotoSlab-Bold, Roboto Slab;font-weight:700;letter-spacing:0.06485262784090909em">КОСТА-РИКА</text>
        </g>
        <g class="phillipin">
            <polygon class="phillipin hover" points="608.56 114.74 608.56 136.68 555.88 136.68 549.64 145.36 542.17 136.68 504.41 136.68 504.41 114.74 608.56 114.74" style="fill:#f2f5f5"/>
            <text class="phillipin hover" transform="translate(513.06 129.48)" style="font-size:11px;fill:#d64636;font-family:RobotoSlab-Bold, Roboto Slab;font-weight:700;letter-spacing:0.07998934659090909em">ФИЛИППИНЫ</text>
        </g>
        <g class="latin selected">
            <polygon class="latin hover" points="266.5 159 266.5 181 157.45 181.15 151.22 189.83 143.74 181.15 105.99 181.15 105.99 159.22 266.5 159" style="fill:#f2f5f5"/>
            <text class="latin hover" transform="translate(114.63 173.95)" style="font-size:11px;fill:#d64636;font-family:RobotoSlab-Bold, Roboto Slab;font-weight:700;letter-spacing:0.07998934659090909em">ЛАТИНСКАЯ АМЕРИКА</text>
        </g>
    </g>
</svg>