<svg xmlns="http://www.w3.org/2000/svg" xmlns:xlink="http://www.w3.org/1999/xlink" viewBox="0 0 650 364.2">
    <defs><style>.cls-1{opacity:0.49;}.cls-2{fill:#6cbe97;stroke:#16985a;stroke-miterlimit:10;stroke-width:0.75px;}</style></defs><title>Ресурс 12</title><g id="Слой_2" data-name="Слой 2">
<g id="map_click" data-name="map click">
    <path class="cls-2" d="M507.56,132.39l1.13.16h1l.78.12.93.65,1.45,1.78.77.54,1.62,1.27L516,138l.72.69.86.38.61.16.65.35.65.35.52.38.43.42.48.16.48.12.17.69.43.31.48.08.39.31.39.46.39.31v.46l.13.38.13.42v.93l.18.62.66.61,1.23.35.45,1,.32.65.27.31.09.31.53.46.66.19.8.54.82,1.12-.28.73,0,.62,0,1.08,0,1.23v1.24l-.05.81-.47.23-.62-.19-.3.07-.34.19-.58-.19-.53-.07-.38.19-.39,0-1.12-1.5-.85-.5-.91-.7L522,153.54l-.45-.54-.73-.73-1-.69-.9-1-.68-1.08-.42-1.19-.5-1.15-.4-.77-.4-.73-.7-.89-.65-.73-.91-.85-.7-.5-.54-2-.89-1.23-.78-.5-.64-.58-1.21-2.12-.6-.46-.77-.42-.94-.65-1-.77-1.16-1.62,0-.58.1-.23.31-.16.69.19.51.51Zm51.57,8.75.3.35.08.35-.22.35-.66.11-.82-.19h-.74l-.35.46-.31.58-.14.5-.13.46-.09.69.09.58.27.5-.47.73-1.21.65-.74.31-.21.23-.12.54.14.38.14.27.05.38v.39l-.29.5-.21.39-.16.31-.12.27.05.31.23.27.18.12v.27l-.07.58-.07.23-.26,0-.1-.19v-.66l0-.12-.18,0-.47.31-.68.38-.64.38-.38.23-.43.19-.39,0-.28-.27-.06-.46-.06-.46-.46-.58-.48-.12-.56.19-.56.12-.35-.16-.53-.19-.48,0h-.48l-.39.15-.52.16-.56,0-.57,0-.44-.12-.24-.5-.4-.35-.48,0-.39,0h-1.27l-.7-.19-.36-.31-.1-.62,0-.61,0-.7v-.54l-.14-.46-.31-.5-.4-.42-.44-.5-.35-.31-.35-.35-.26-.5,0-.38-.13-1-.21-.54v-1l.27-1,.19-.73.27-.5.26-.19,1.11,1.44.31.23.44.39.63.33.63-.11.57-.22h.63l.69.05.57-.28.38-.39.51-.39.57-.17,1.07.17,1.07.45.63.05L548,141l.57-.06.51-.22.32-.28.26-.33.45-.5.26-.39.27-.5.08-.56.08-.44.26-.28.4-.39.15-.5.09-.61.08-.39.35-.73.15-.5.26-.17h1.13l.82.05.82.06.61.28.38.38.11.42.17.19-.58.27-.31.08.11.58.37.58.25.31.51.5.25.38.12.38v.35l-.1.54.21.54.43.27.52.27.47.31Zm-51.52-2.2h-.22l-.21-.15-.33-.14-.16-.29-.66-.24-.05-.19.06-.29.17-.19h.61l.16.1.38.29.27.15.26.53-.06.29Zm73,1.9.36.07h.2l.44-.25h.24l.35.21.07.28,0,.25-.12.28-.28.25-.24.21,0,.28.08.35.2.11.44.35.16.39-.32.1-.44,0-.28-.14-.28-.32-.52-.07-.36.14-.12.32,0,.6.16.53.24.42v.35l-.08.18-.32,0-.24-.24-.2-.39-.12-.32-.08-.31,0-.39,0-.32v-.35l-.08-.25,0-.28-.12-.35-.11-.32-.12-.31v-.28l0-.31.09-.35.13-.31.17-.35.25-.42.32-.25h.28l.12.1.11.39v.28l0,.32Zm-7.16.84-.75.65L572,143l-.87.46h-1l-.79-.12-.83-.16-.78,0h-1.4l-.61,0-.79,0h-1.35l-.48.15-.48.23-.44.15-.13.15-.09.15-.07.23,0,.23,0,.19,0,.15v.17l0,.09.08.12.1.11,0,.1.09.12.05.09,0,.07,0,.1,0,.1.19.05.35.5.35.5.66.31.83,0,.78-.46.61-.35.65-.27.78-.23.52,0,.4.42-.52.54-.69.38-.78.54-.43.31-.43.27-.25.46.5.77.58.46.31.23.27.35.23.38.23.31.16.62,0,.58-.24.54-.23.73-.18.73-.32.58-.51.27-.67-.31.17-1,0-.31-.31-.19-.36-.27-.32-.15-.41-.42-.11-.42.11-.46.33-.42.16-.42-.1-.58-.27-.15-.61,0-.68.35-.38.46-.25.46,0,.58.06.38.09.15.12.89.07.38.11.5,0,.5-.05.54-.06.54-.11.46-.28.42-.29.23-.69.16L561,157l-.19-.31V156l.31-.77.09-.77,0-.62,0-.62-.14-.31-.18-.19-.07-.46-.44-.23H560l-.44-.12-.37-.62,0-.61.24-.5.33-.62.33-.69.07-.73.12-.54.17-.46.26-.46.51-.81.12-.13,0-.18,0-.23v-.72l-.07-.38,0-.31.12-.36.11-.32.29-.25.4-.42.44-.27.57-.38.4-.31.35-.23.61.08.74.23.79.08.74.08.52.11.78.19.7.08.56,0,.61,0h.57l.44-.19.53-.27.53-.35.22-.31.18-.23.31-.27.31-.15.31-.08.35,0,.26.16.08.27-.18.38-.26.19Zm-62.07.9-.5.15-.55-.05-.33-.34-.32-.63-.38-.49.06-.19.17-.34h.33l.44.05.16.14.33.24.55.53.16.39Zm83,6.18.34.74.3.49.67.78.5.49.5.39.57.25.32,0,.35-.14.39-.25.38-.42.5-.56.34-.67.19-.24.2-.07.28,0,.44-.07.47-.18.27-.25.23-.32.19-.46L602,148l.44-.25.48-.07.68.1.48.18.53.32.69.46.65.35,1.12.35.77.21,1.2.21,1.09.35.18,15-.22-.21-.41-.53-.35-.32-.56-.46-.44-.49-.4-.43-.42-.21-.77,0-.67.1-.5.25-.42.32-.67.14-.72,0-.55,0-.46-.18,0-.32.14-.28.13-.28.22-.28.26-.28.38-.32.54-.18.59,0,.45-.32.26-.28.09-.42-.14-.35-.47-.5-.44-.49-.61-.71-.24-.6-.7-1-.71-.53-1.31-.56-1.6-.63-1.55-.57-1.19-.56-1.1-.53-1-.32-1.05-.35-.47.21-.38.46-.58.32-.65-.18-.3-.42,0-.21.06-.39-.1-.45-.17-.28-.33-.24-.57-.21-.37-.31v-.35h.36l.56.07.52-.1.43-.21.35-.21,1,0,.71-.1.26-.35-.09-.31-.21-.18-.52-.07-.52,0-.6.11h-1.2l-.68-.11-.44-.24-.29-.32-.33-.45-.44-.32-.56-.07-.72,0-.36-.35.07-.35.51-.46.48-.28.55-.35.56-.28.84-.28.8-.1.44.1.56.25.4.21.36.21.44.21.68.21.32.25.17.53v.81Zm-63.21,2.43-.3.08-.36-.23-.31-.35-.31-.27-.23-.27-.19-.38-.18-.27-.35-.27-.44-.08L528,149l-.14-.15,0-.27.34-.46.35-.23.39-.08h.61l.22,0,.18.23.09.38.1.5.14.42.31.31.49.38.19.5Zm3.45.08-.34.19-.57,0-.31-.23-.14-.35v-.35l.17-.31.3-.19.48,0,.57.27.18.3-.11.36Zm48.91-.54.66,0h1l.22.08.35.12.35.12.22.11.1.35-.08.27-.6.19-.47.07-.4,0-.35-.08-.69.15h-2.09l-.61-.07-.45-.27-.14-.19.11-.46.38-.27.78-.12h1.66Zm-6.76,2-.65,0-.31-.08-.24-.5,0-.42.29-.5.21-.27.52-.16H577l.62.27.26.08.35.16.18.16.18.23V152l.05.19v.15l0,.16-.34.23h-.7Zm18.3,7-.28.1-.42-.21-.08-.33.2-.49.17-.52,0-.26v-.21l.09-.36,0-.21.24-.31.22-.21.23-.1.3.08.22.23.08.36.05.36,0,.21-.13.29-.09.36-.15.34-.16.15-.18.31-.22.23Zm-61.62-1.43.45.19.58.15.49.23.4.27.28.38.4.19.67.27.66.07.66,0h.65l.7,0,.39,0,.29-.27.16-.31.34-.27.38-.15,1.18.08.4.19.67.27.76.27.45.27.37.39.15.31.24.27.59.31.76.23.62.08.78,0,.66.08.51.46v.58l-.1.38.08.54-.51.23-.72-.31-.81-.39-1-.19-.65,0-.78.15-.71-.08-.75-.08h-.66l-.61.08-.44-.08-.66-.08-1.23-.73-.94-.27-1.2-.31h-.87l-.82.19-.56.12-.71-.08-.4-.19-.72-.35-.53-.16-.75,0-.66-.16-.28-.23-.28-.38-.42-.43-.58-.15h-.61l-.44,0-.23-.23.24-.42.47-.19.2-.35.24-.46.3-.12.52,0,.49.08.45.23.39-.08.25-.27.39-.12.53.16Zm13,2.44h-.3l-.23-.16-.23-.19-.05-.19.2-.35.3-.12.39,0h.7l.57.08.14.08.1.16.14.19-.16.23-.73.19-.47.12Zm41,2.38-.4.1-.28-.18.26-.39.28-.21.19-.21,0-.29,0-.31.21-.34.08-.1.37-.16.27-.28.21-.26.2-.13.24.13.16.26V161l0,.21-.07.18,0,.13-.18.31-.45.26-.26.34-.19.23-.27.31Zm-11.22-.51h-.65l-.29-.11,0-.47.35-.25.31-.22.48-.14.24,0h.33l.33,0h.28l.13.14v.11l-.06.29-.47.29-.47.25Zm-24.76,1.52-.4.14-.42-.14-.27-.29-.28-.44,0-.33.27-.25.35-.26.36-.07.42.14.26.18.1.25v.14l.06.29v.14l-.21.4Zm7.67.44-.28,0-.37-.07-.34-.18-.18-.18-.19-.32-.26-.26-.35-.25-.11-.36.15-.25.33.11.3.18.24,0,.41,0,.66.14.09.11.15.36,0,.25.09.15.1.29Zm-5.7.25-.28,0-.25-.07-.15-.36,0-.47.14-.32.14-.33.35-.25.16-.11.33,0,.21.11,0,.11,0,.33V164l-.11.22-.1.26-.11.25-.31.14ZM565,163.65l.46,0,.45,0,.44-.07h.45l.38.14.14.18v.21l-.43.18H566l-.93.11-1.1,0-.83-.11-.66-.07h-.53l-.14-.18.21-.4.35-.18.63-.29.69,0,.67.22Zm-9.11,1.67h-.49l-.35-.22-.15-.4,0-.47.22-.4.27-.18.36,0,.4,0,.33,0,.17.11.26.14.09.18.06.22v.36l.05.14-.23.18-.2.11-.39.18ZM573,165l.2,0h.18l.1.1,0,.14-.2,0-.14.07,0,.1.07.12.11.12.07.08.19.13.14.15-.3.27-.86.91-.47.22-.28,0-.39.15-.51.25-.46,0-.3-.15-.21-.47.09-.33.34-.33.3-.37.42-.4.39-.26.44-.18.35-.15.59-.25.18-.11Zm-8.92,2.39-.7.36-.58,0-.17-.07-.34-.18-.22-.14-.26-.15-.21-.11-.43-.18-.38-.11-.46-.15-.62-.14-.19-.26,0-.22.35-.22.53,0h1.23l.54.07.64.36.56.29.56.33Z"/>
    <polygon class="cls-2" points="155.59 139.49 156.35 139.58 156.94 139.45 157.16 139.02 157.26 138.53 157.51 138.3 158.11 138.27 159.15 138.27 159.81 138.4 160.53 138.86 161.75 138.99 162.26 138.76 162.93 138.7 163.42 138.96 164.16 138.99 164.75 138.73 165.07 138.3 165.32 137.78 165.76 137.09 166.07 136.34 166.62 135.46 166.9 134.86 167.78 134.73 168.47 135.67 168.75 137.26 169.27 138.49 169.86 139.57 170.6 140.15 171.01 140.44 170.78 141.6 169.97 142.54 168.99 143.69 167.77 144.71 167.68 145.5 166.61 146.51 165.63 146.95 164.97 147.17 164.88 147.74 165.53 147.96 166.44 147.88 167.26 147.45 168 147.17 168.65 147.02 169.31 146.95 169.8 146.44 169.81 145.79 169.81 145.22 169.81 144.56 171.53 144.64 172.76 144.64 173.57 144.56 174.06 145 174.06 145.5 173.65 146.15 173.16 146.73 172.5 147.38 172.17 147.74 171.99 148.18 172.32 148.46 173.3 148.25 173.97 147.74 174.54 147.53 174.95 146.88 175.37 146.22 176.27 145.93 177.66 145.93 179.13 146.44 180.76 147.02 182.06 147.6 183.12 148.25 183.28 148.61 183.02 149.48 182.76 150.27 183.24 151.07 183.9 151 184.56 150.49 185.22 150.13 186.37 149.91 187.68 149.91 188.57 150.34 190.28 150.93 191.75 151.07 193.15 150.93 194.21 150.85 196.4 152.23 198.57 153.89 199.93 155.05 201.06 155.63 202.28 155.91 203.59 155.99 204.32 156.28 205.26 157.95 205.45 159.83 205.77 162.74 205.04 164.85 202.98 167.18 201.09 168.86 200.03 170.32 199.29 171.93 198.82 172.89 198.2 173.69 197.69 174.06 197.55 173.62 197.15 173.4 196.57 173.33 196.43 174.35 196.13 175.31 196.28 176.71 196.49 179.74 195.93 182.77 195.63 185.38 195 185.97 194.87 186.57 194.84 187.84 194.71 189.26 194.31 189.94 193.34 191.37 192.77 192.12 192.09 193.1 191.77 193.85 191.51 194.76 191.09 195.67 190.38 196.13 189.67 196.51 189.33 197.34 188.94 197.88 187.13 197.65 186.29 197.65 185.33 198.03 183.97 198.18 183.2 198.33 182.53 199.1 181.58 199.4 180.93 199.86 179.98 200.17 178.87 200.32 177.2 201.7 175.81 202.77 175.15 203.31 174.37 203.47 173.84 204.24 173.86 206.4 174.29 208.03 174.16 209.9 173.69 211.23 172.55 212.41 171.4 213.66 170.7 214.69 170.38 215.48 169.88 217.23 169.56 217.94 168.43 219.3 167.37 220.26 165.96 221.22 165.53 222.03 165.28 222.75 164.41 223.56 163.88 224.37 163.54 224.93 163.15 224.42 162.75 223.9 162.77 223.41 163.05 222.84 163.2 222.41 163.11 221.76 162.63 221.14 161.3 220.02 159.89 218.88 159.37 218.36 158.71 217.74 158.22 217.62 157.17 217.25 156.69 216.75 156.46 216.35 155.74 215.76 155.22 215.36 154.33 214.85 154.68 214.44 156 212.9 157.45 211.19 158.3 210.34 159.65 209.44 160.95 208.73 162.32 207.88 162.53 206.56 162.53 205.32 162.43 204.99 162.26 204.6 161.98 204.35 161.75 204.28 161.12 204.17 160.81 204.09 160.86 203.85 160.93 203.65 160.96 203.34 160.95 202.97 160.93 202.47 160.96 201.97 160.98 201.68 161.27 200.36 161.17 200.08 160.89 199.92 160.4 199.92 159.59 200.17 158.85 200.2 158.66 199.95 158.53 199.69 158.42 199.45 158.44 199.07 158.47 198.8 158.51 198.34 158.25 197.93 157.75 197.82 157.26 197.89 156.64 198.04 155.88 198.19 155.04 198.22 154.29 198.16 153.84 198.09 153.55 197.95 153.41 197.77 153.33 197.56 153.22 197.31 153.37 196.9 153.37 196.66 153.34 196.41 153.29 196.09 153.21 195.72 153.12 195.26 153.16 194.87 153.24 194.17 153.27 193.82 153.31 193.41 153.33 192.8 153.22 192.5 153.14 192.43 152.97 192.36 153.01 192.15 152.78 191.69 152.61 191.31 152.62 190.73 152.37 190.14 153.03 188.98 153.38 188.34 153.47 187.89 153.46 186.79 153.58 185.59 153.21 184.86 152.62 184.48 151.84 184.14 151.62 183.59 151.73 182.75 151.6 181.79 149.5 181.77 148 181.81 147.73 181.49 147.72 181.13 147.65 180.63 147.68 180.06 147.47 179.82 147.17 179.43 147.17 179.19 147.25 178.91 147.43 178.67 147.59 178.45 147.59 178.07 147.47 177.81 147.27 177.45 147.18 176.59 146.9 175.94 146.42 175.6 145.79 175.28 143.88 175.19 143.63 174.93 143.6 174.75 143.36 174.64 143.02 174.61 142.81 174.54 142.6 174.5 142.39 174.3 142.12 174.28 141.74 174.04 141.48 173.82 141.4 173.63 141 173.51 140.83 173.5 140.66 173.46 140.31 173.22 140.08 173.09 139.61 173.12 139.4 173.22 139.15 173.21 138.9 173.14 138.56 173.07 138.26 172.97 138.18 172.76 138.04 172.54 137.77 172.35 137.44 172.13 137.18 171.98 136.79 171.74 136.66 171.38 136.57 171.35 136.47 171.35 136.38 171.25 136.4 171.06 136.36 170.96 136.26 170.82 136.14 170.63 136.01 170.48 135.95 170.26 135.98 170.02 136.11 169.81 136.14 169.61 136.16 169.41 136.15 169.22 136.08 169.13 135.97 169.02 135.87 168.71 135.89 168.44 135.96 168.22 136.11 168 136.18 167.79 136.25 167.5 136.27 167.11 136.12 166.72 135.85 166.65 135.28 166.68 134.11 166.69 133.21 166.82 132.5 167.08 131.97 167.4 131.56 167.66 130.86 168.08 130.22 168.52 129.45 168.66 128.99 169.25 128.63 169.54 128.18 169.63 127.9 169.51 127.41 169.36 126.76 169.36 126.39 169.36 125.69 169.36 124.33 169.34 123.64 169.17 123.82 165.77 123.37 165.96 122.95 166.37 122.51 166.74 122.06 167.15 121.83 167.16 121.49 167.15 121.22 167.15 120.78 167.13 120.41 167.08 120.13 166.86 120.07 166.59 119.9 166.25 119.49 165.98 119.02 165.84 118.47 165.74 118.34 165.38 118.33 164.93 117.87 164.26 117.26 163.49 116.18 161.78 116.3 160.78 116.67 159.72 117.09 159.43 117.65 159.09 117.75 158.64 117.77 158.11 117.79 157.54 118.12 156.9 118.35 156.14 119.45 155.26 121.07 154.45 122.44 153.9 123.45 153.78 124.14 153.78 124.9 153.81 125.17 153.59 125.34 153.09 125.57 151.78 126.13 148.19 126.19 146.51 126.1 145.7 125.72 145.13 125.04 144.64 124.86 143.59 124.86 143.01 125.07 142.71 125.45 142.63 126.06 142.61 126.61 142.51 126.76 142.26 126.74 141.9 126.53 141.62 126.28 141.57 125.94 141.57 125.69 141.58 125.33 141.43 125.33 141.08 125.45 140.07 128.13 139.99 129.96 139.87 130.22 139.72 130.75 139.45 131.56 139.42 131.58 139.63 131.72 140 132.04 141.04 132.9 141.83 133.57 142.18 134.22 142.25 134.46 142.1 134.96 142.01 135.3 142.15 135.59 142.13 136.69 141.36 137.61 140.78 138.07 140.55 138.43 140.36 138.75 140.13 139.09 139.76 139.39 139.53 139.75 139.29 140.01 139.12 140.18 138.88 140.02 138.67 139.52 138.43 139.19 138.31 138.77 137.92 138.65 137.6 138.54 137.15 138.46 136.8 138.39 136.39 138.35 136.11 138.18 135.7 138.02 135.49 137.75 135.21 137.44 134.95 137.36 134.79 137.38 134.41 137.55 134.24 137.87 134.15 138.49 134.38 139.03 134.69 139.34 134.83 140.04 135.2 140.48 135.37 140.83 135.57 141.14 135.72 141.42 135.67 141.78 135.35 141.93 134.9 142.25 134.63 142.84 134.49 143.28 134.48 143.79 134.48 144.5 134.19 145.2 133.84 145.72 133.52 146.47 133.08 146.72 132.42 146.54 132.12 147.35 132.21 147.94 132.31 147.99 132.6 148.08 133.06 148.32 133.59 148.66 133.81 149.08 134.27 149.13 134.83 148.96 135.29 148.64 135.81 148.07 137.06 148.09 138.04 148.41 139.02 148.82 139.71 149.39 140.3 150.13 141.05 150.88 141.12 151.21 141.02 151.47 140.63 151.83 140.47 152.24 140.37 153.02 140.3 153.72 139.71 154.53 139.48 155.31 139.45 155.59 139.49"/>
    <polygon class="cls-2" points="121.85 116.76 121.34 116.85 120.69 117.13 120.09 117.67 118.61 119.69 118.19 121.02 117.93 122.06 117.59 122.38 117.8 122.8 118.45 123.07 118.89 123.5 119.51 124.75 119.48 125.28 119.41 125.84 119.43 126.59 120.1 127.51 120.46 127.78 123.45 127.71 124.45 127.95 125 128.25 125.25 128.71 125.73 129.21 126.13 129.74 126.27 129.97 128.76 129.79 129.73 129.6 130.22 129.59 130.59 129.65 130.91 129.99 130.97 130.24 131 130.51 130.97 130.77 130.87 131.12 130.73 131.42 130.6 131.69 130.53 131.91 130.53 132.17 130.46 132.52 130.41 132.76 130.42 133.01 130.34 133.52 130.31 133.7 130.38 133.95 130.5 134.24 130.51 134.51 130.52 134.74 130.72 135.08 130.9 135.37 131.08 135.62 131.18 135.87 131.22 136.09 130.93 136.39 130.51 136.76 130.3 137.15 130.15 137.34 130.29 137.62 130.69 137.86 130.87 137.94 131.08 138.06 131.25 138.23 131.45 138.48 131.53 138.73 131.54 139.17 131.56 139.42 130.75 139.45 130.22 139.72 129.96 139.87 128.13 139.99 125.45 140.07 125.33 141.08 125.33 141.43 125.69 141.58 125.94 141.57 126.28 141.57 126.53 141.62 126.74 141.9 126.76 142.26 126.61 142.51 126.06 142.61 125.45 142.63 125.07 142.71 124.86 143.01 124.86 143.59 125.04 144.64 125.72 145.13 126.1 145.7 126.19 146.51 126.13 148.19 125.57 151.78 125.34 153.09 124.83 153.22 124.35 153.03 123.99 152.82 123.7 152.47 123.77 152.15 123.93 151.72 124.25 151.19 124.59 150.82 124.92 150.45 124.93 150.21 124.81 150.07 124.52 149.83 124.25 149.7 123.74 149.49 123.35 149.46 123.01 149.59 122.62 149.62 122.17 149.59 121.96 149.43 121.72 149.3 121.11 149.57 120.9 149.78 120.72 149.94 120.41 149.97 119.96 149.91 119.6 149.89 119.15 149.83 118.73 149.7 118.37 149.49 118.29 149.27 118.17 148.74 118.12 148.5 117.91 148.42 117.64 148.32 117.4 148.13 117.25 147.76 117.14 147.46 116.93 147.28 116.66 147.09 116.36 146.9 115.94 146.66 115.7 146.35 115.61 145.97 115.4 145.63 115.07 145.25 114.65 144.96 114.29 144.75 113.99 144.59 113.33 144.32 112.99 144.27 112.45 144.03 112.15 143.89 111.82 143.71 111.52 143.5 111.12 143.33 110.67 143.23 110.31 143.15 109.83 143.2 109.19 143.26 108.86 143.28 108.5 143.23 108.17 143.12 107.93 142.85 107.68 142.54 107.44 142.22 107.11 142 106.75 141.98 106.08 141.69 105.35 141.26 104.68 140.9 104.83 140.44 104.82 139.94 105.31 139.65 105.37 138.93 105.77 138.56 106.83 138.28 107.77 136.9 108.22 134.01 108.38 130.24 107.9 128.93 107.28 128.14 106.75 127.41 107.15 127 107.6 126.62 107.97 126.15 108.19 125.77 108.31 124.97 108.2 124.43 108.91 125.23 109.4 125.23 109.67 124.36 110.05 123.77 110.75 123.34 111.71 122.83 112.08 122.24 112.17 121.3 112.58 120.27 113.16 119.25 113.78 118.81 114.44 118.88 114.87 119.03 115.34 118.74 115.77 118.08 116.5 117.93 117.49 117.93 118.67 117.35 119.52 116.69 120.28 116.03 120.97 115.44 121.52 115.22 121.97 115.59 122.1 116.1 121.85 116.76"/>
    <polygon class="cls-2" points="466.02 60.23 466.6 61.12 467.07 61.57 467.35 62.24 467.52 62.91 467.78 63.69 468.28 64.46 468.42 65.24 468.37 65.9 467.34 66.23 466.46 66.45 466.86 68.1 467.55 69.08 468.22 70.18 469.06 71.05 469.98 71.6 470.81 72.03 471.67 72.36 472.05 72.3 471.49 72.96 471.09 73.26 470.71 73.51 470.35 73.93 470.21 74.54 470.12 75.27 470.2 75.81 470.56 76.24 471.23 76.48 471.83 76.72 472.7 77.26 473.87 77.87 475.04 78.53 475.53 79.01 476.37 79.37 477.38 79.49 478.74 79.55 479.45 79.55 480.08 79.67 480.59 80.03 481.01 80.51 481.47 80.81 482.6 80.99 483.58 81.29 484.71 81.53 485.33 81.65 486.28 81.77 487 81.77 487.64 81.77 488.31 81.7 488.89 81.41 488.71 80.75 488.61 80.27 488.56 79.91 488.55 79.37 488.66 78.89 488.88 77.81 489.69 77.96 490.25 78.6 490.23 79.13 490.13 79.61 490.15 80.09 490.19 80.51 490.44 80.87 491.01 80.93 491.73 80.93 492.38 81.23 492.85 81.17 493.51 81.11 494.17 81.05 495.11 80.93 496.03 80.87 496.88 80.87 497.28 80.81 497.63 80.39 497.61 80.21 497.64 79.79 497.44 79.55 497.21 79.37 497.01 79.13 496.98 78.07 497.83 78.39 499 77.85 500.23 77.1 501.83 75.81 503.85 74.74 504.93 74.63 506.62 74.41 507.14 75.06 507.9 75.71 508.72 76.14 509.31 76.57 510.07 76.78 509.72 77.81 509.58 78.11 509.28 78.53 509.16 79.01 509.32 79.43 509.1 80.09 508.94 80.21 508.29 79.91 507.91 79.61 507.45 79.61 507.1 79.73 506.32 80.27 505.57 80.99 504.96 81.65 504.4 82.42 504.1 83.2 503.92 84.03 503.22 85.51 502.92 86.46 502.33 87.23 501.45 87.81 500.83 88.05 500.34 88.64 500.23 89.64 500.3 90.76 500.17 91.93 499.6 92.63 499.25 93.21 498.92 92.45 498.64 91.46 498.57 91.05 498.61 90.46 498.63 89.93 498.64 89.53 498.34 88.99 497.97 88.88 497.62 89.06 497.35 89.53 496.95 89.93 496.62 89.99 496.27 89.82 496.01 89.41 495.97 88.88 496.11 88.05 496.86 87.46 497.49 86.81 498.08 86.05 498.4 85.33 498.29 84.92 496.31 85.1 494.68 85.16 493.64 85.16 493.03 84.98 492.68 84.44 492.53 83.61 492.15 82.9 491.42 82.66 490.86 82.24 490.19 82 489.13 81.83 488.99 82.18 489.01 82.72 489.37 83.2 489.84 83.73 490.13 84.27 489.95 84.86 489.49 85.22 488.99 85.45 488.49 86.11 488.62 86.81 488.96 87.52 489.37 88.17 489.9 88.88 490.34 89.76 490.78 90.64 491.05 91.34 491.02 92.33 490.76 93.37 490.13 93.37 489.68 93.6 488.99 93.45 488.69 92.88 488.24 93.14 487.94 93.53 487.18 93.86 486.32 94.05 485.95 94.32 485.73 95.11 485.65 96.47 484.83 97.42 483.09 98.28 482.15 98.81 481 100.08 479.02 102.21 476.91 103.7 475.98 104.19 475.53 104.56 475.28 105.38 475.01 106.05 474.2 106.31 473.07 106.46 472.74 106.87 472.4 107.39 471.8 107.61 471.13 107.68 470.73 107.98 470.49 108.39 470.25 109.13 470.41 110.27 470.42 111.71 470.45 112.41 470.56 113.04 470.55 114.29 470.69 115.28 469.87 116.31 469.71 116.93 469.48 117.92 469.61 118.4 469.71 118.87 469.67 119.53 469.54 120.33 468.99 120.59 468.53 120.74 467.9 121.76 467.39 122.89 466.71 123.4 466.37 123.62 466.02 124.02 465.67 124.61 465.37 124.86 465.1 125.26 464.68 125.48 464.27 125.55 463.71 125.26 462.87 124.64 462 122.97 461.65 121.69 461.38 120.56 460.69 118.98 460.24 117.41 458.8 115.39 458.13 113.22 457.65 111.82 456.95 110.05 455.79 107.98 455.19 106.72 454.91 105.08 454.61 103.3 454.06 101.62 453.97 100 453.81 98.99 453.49 98.47 453.22 97.83 453.3 97.04 453.63 96.66 453.87 96.28 453.89 95.68 453.51 95.27 453.31 94.85 453.27 94.36 453.44 93.98 453.51 93.64 453.06 93.14 453.1 92.73 453.06 92.27 452.79 92.12 452.29 92.08 451.89 92.27 451.56 92.69 451.72 93.14 451.95 93.33 451.98 93.86 451.92 94.09 451.49 94.62 451.18 94.85 450.82 95.08 450.37 95.38 449.8 95.72 449.41 95.87 448.78 95.87 448.08 95.38 447.15 94.58 446.23 93.71 444.97 92.42 444.87 92.23 446 92.2 446.49 91.93 447.33 91.4 448.01 90.9 448.29 90.26 447.7 90.22 446.74 90.64 446.09 90.83 445.34 90.83 444.42 90.41 443.32 88.73 442.82 88.27 443.48 87.81 443.79 87.4 444.16 87.05 445.13 86.99 445.52 87.05 446.3 87.46 446.89 87.4 447.42 86.88 448.08 86.7 448.62 87.05 449.06 87.11 449.44 86.22 449.13 85.63 448.55 84.8 448.33 84.15 447.96 83.61 447.42 83.31 447.28 82.96 447.36 82.48 447.25 82 446.77 81.7 446.43 81.41 446.11 81.05 445.97 80.69 446 80.15 446.44 79.43 446.86 78.95 447.35 78.35 447.78 78.17 448.21 78.29 448.49 78.59 449.44 78.71 450.34 78.41 450.69 78.29 451.25 77.75 451.56 77.14 452 76.54 452.69 76 453.55 75.33 453.87 75.03 454.32 74.42 454.46 73.75 454.74 73.02 455.26 72.72 455.82 72.29 456.12 71.8 456.41 71.37 456.97 70.94 457.57 70.33 457.67 69.9 457.57 69.47 457.67 68.73 458 68.17 458.74 67.62 459.2 67.06 458.49 66.44 457.86 66.07 457.25 65.58 456.59 65.02 456.42 64.39 456.59 63.46 456.5 62.77 456.22 61.58 456.79 60.95 457.59 60.69 458.96 60.82 459.84 61.01 461.24 61.01 462.05 60.76 462.85 60.51 463.63 60.13 464.37 59.87 465.38 59.55 466.02 60.23"/>
    <polygon class="cls-2" points="26.37 68.1 27.81 68.57 29.24 69.07 30.5 69.48 32.13 69.59 35.78 69.57 36.82 69.36 37.05 69.21 37.24 68.91 37.33 68.67 37.64 68.46 38.08 68.45 38.7 68.45 39.4 68.48 40.41 68.51 41.14 68.58 41.37 68.65 41.53 68.74 41.69 68.83 41.83 68.91 41.91 69.05 41.98 69.16 42.08 69.3 42.18 69.42 42.35 69.54 42.53 69.64 42.72 69.73 42.84 69.8 42.98 69.95 43.14 70.09 43.25 70.21 43.33 70.28 43.53 70.43 43.71 70.64 43.81 70.78 43.96 70.92 44.09 71.04 44.26 71.14 44.37 71.21 44.56 71.28 44.67 71.35 44.82 71.47 44.97 71.61 45.08 71.74 45.2 71.9 45.3 72.05 45.39 72.21 45.48 72.4 45.61 72.57 45.7 72.7 45.74 72.89 45.74 73 45.68 73.17 45.7 73.31 45.76 73.42 45.84 73.65 45.96 73.82 46.01 74.04 46.16 74.16 46.26 74.26 46.44 74.38 46.59 74.47 46.75 74.55 46.93 74.74 47.02 74.81 47.18 74.89 47.39 75 47.65 75.13 47.84 75.22 48.01 75.3 48.16 75.37 48.31 75.44 48.44 75.53 48.6 75.64 48.73 75.75 48.93 75.81 49 75.81 49.23 75.76 49.34 75.71 49.44 75.66 49.54 75.58 49.63 75.49 49.68 75.42 49.73 75.32 49.76 75.23 49.81 75.15 49.89 75.05 49.95 74.91 49.99 74.81 50.05 74.59 50.11 74.53 50.14 74.45 50.21 74.3 50.24 74.19 50.26 74.09 50.31 73.99 50.39 73.9 50.44 73.87 50.62 73.85 50.75 73.8 50.89 73.76 50.98 73.7 51.08 73.61 51.16 73.58 51.28 73.58 51.38 73.63 51.52 73.7 51.71 73.73 51.89 73.73 52.08 73.73 52.27 73.75 52.54 73.8 52.78 73.8 52.99 73.82 53.12 73.83 53.27 73.89 53.38 73.99 53.51 74.09 53.64 74.25 53.75 74.35 53.85 74.47 53.98 74.53 54.09 74.6 54.18 74.65 54.24 74.74 54.35 74.86 54.54 75 54.77 75.18 54.88 75.3 54.98 75.54 55.01 75.73 55.05 75.86 55.12 75.98 55.21 76.14 55.3 76.26 55.34 76.39 55.39 76.53 55.48 76.66 55.64 76.92 55.71 77.16 55.8 77.39 55.9 77.53 55.97 77.68 56.14 77.77 56.28 77.82 56.39 77.97 56.49 78.12 56.64 78.29 56.71 78.49 56.76 78.61 56.84 78.76 56.96 78.88 57.14 79.03 57.31 79.12 57.51 79.27 57.63 79.42 57.74 79.59 57.79 79.74 57.84 79.93 57.83 80.12 57.83 80.25 57.78 80.37 57.75 80.52 57.79 80.7 57.85 80.82 57.96 80.95 58.06 81.06 58.15 81.19 58.22 81.34 58.28 81.46 58.37 81.61 58.5 81.98 58.59 82.13 58.68 82.15 58.88 82.2 59.05 82.25 59.2 82.32 59.32 82.39 59.44 82.45 59.59 82.5 59.77 82.53 59.95 82.57 60.07 82.65 60.23 82.79 60.38 82.95 60.68 83.05 60.86 83.07 61.15 83.04 61.33 83.04 62.04 83.19 62.35 83.24 62.33 84.01 61.76 85.47 61.13 88.01 61.02 90.68 61.6 93.18 62.39 95.07 63.04 96.73 63.75 97.41 64.26 98.31 64.92 99.14 65.25 99.58 65.52 100.11 66.33 100.49 67.22 100.78 67.75 101.01 68.35 101.53 68.97 101.75 70.56 101.83 71.55 101.31 73.34 101.08 75.4 101.01 76.23 101.01 76.5 100.18 77.21 99.51 77.73 98.69 77.91 97.86 78.21 97.18 78.27 96.13 78.59 95.15 79.28 94.77 80.64 94.47 81.86 94.32 83.31 94.01 84.36 93.78 85.53 93.78 86.28 94.24 86.63 94.85 86.18 95.6 85.04 97.18 84.94 98.53 84.79 99.58 84.36 100.41 83.94 101.05 83.43 100.86 83.18 100.94 83.01 101.08 82.58 101.34 82.41 101.52 82.2 102 81.94 102.27 81.39 102.27 81 102.66 80.37 102.69 77.11 102.63 76.94 102.63 76.91 102.93 76.95 103.23 76.93 103.75 76.64 104.11 76.05 104.17 75.88 104.2 76.66 104.74 77.12 104.92 77.49 105.19 77.93 105.67 78.15 106.12 78.23 106.48 77.26 106.75 76.62 106.69 75.78 106.69 75.36 106.78 75.03 107.11 74.71 107.47 74.62 107.83 74.62 108.37 74.35 109.18 74 110.38 71.92 108.22 70.72 107.41 69.46 106.74 68.49 106.37 67.67 106.37 66.19 106.96 65.51 107.41 64.79 107.56 63.48 107.63 62.38 107.48 61.42 107.19 59.81 106.44 58.45 105.7 57.48 105.33 54.99 104.36 53.52 103.55 52.68 103.02 51.81 102.8 49.8 102.28 47.75 101.08 46.53 99.96 45.03 99.14 44.41 98.53 43.7 97.94 43.12 97.11 43.26 96.58 44.07 96.05 44.29 94.69 44.21 93.94 43.59 92.95 42.76 91.06 41.34 89.53 39.98 88.01 38.81 86.93 38.08 86.32 37.65 85.55 37 84.7 36.18 84.16 35.19 83.62 34.85 83.31 34.84 82.7 35.11 82.15 35.05 81.69 34.38 81.15 33.81 80.91 33.13 80.37 32.76 79.98 31.77 78.97 31.45 78.5 30.6 77.95 29.91 77.4 29.03 76.3 28.31 75.68 27.67 74.81 26.93 73.47 26.55 72.44 26.13 71.33 26.14 70.69 25.98 70.05 25.24 69.5 24.54 69.26 24.05 69.1 23.15 68.78 22.38 68.38 21.87 68.38 21.86 69.82 22.23 71.41 22.49 72.52 22.99 73.63 24.32 74.73 25.52 75.99 26.19 76.93 26.74 77.56 27.08 78.34 27.38 79.28 28.92 80.68 29.73 81.69 30.25 82.85 30.53 83.85 30.99 84.86 31.32 85.47 31.6 86.24 31.91 86.86 32.66 87.54 33.13 87.77 33.73 88.16 34.1 88.69 34.41 89.3 34.48 89.99 34.23 90.37 33.88 90.68 33.38 90.68 32.91 90.45 32.57 89.69 32.35 89.08 31.74 88.62 31.11 88.08 30.29 87.47 29.68 87.01 29.08 86.63 28.31 85.86 27.98 84.94 28.25 84.08 28.19 83.31 27.86 82.46 27.14 81.76 26.32 81.3 25.58 81.07 24.96 80.99 24.24 80.83 23.53 80.45 22.63 79.75 21.8 79.04 21.59 78.65 21.82 78.58 22.29 78.73 22.93 79.12 23.62 79.43 23.99 79.51 23.82 78.73 23.64 78.18 23.85 77.56 23.84 77.01 23.65 76.46 23.01 75.83 22.08 75.13 21.45 74.57 20.83 74.02 20.17 73.39 19.22 71.56 18.55 70.53 18.09 69.82 17.49 68.38 16.91 67.01 16.71 66.53 17.88 66.47 19.57 66.27 21.27 66.24 22.37 66.62 23.31 67.06 25.09 67.53 26.37 68.1"/>
    <polygon class="cls-2" points="382.22 134.88 382.04 135.56 381.21 136.59 380.47 137.31 380.16 137.84 380.16 142.88 380.12 145.07 380.21 146.21 380.81 146.77 381.69 147.98 380.96 148.63 380.18 149.21 379.49 150.15 378.92 150.4 378.44 151.63 377.96 152.47 377.23 153.81 376.3 154.89 374.76 153.94 373.55 153.25 372.63 152.15 372.54 151.51 372.28 151.02 371.63 150.52 369.34 149.2 364.05 146.4 364.01 143.82 364.26 143.25 364.82 142.31 365.25 141.74 365.81 140.98 366.16 140.53 366.33 140 366.38 139.54 366.38 138.98 366.14 137.92 365.68 137.08 365.39 136.51 365.18 136.02 364.97 135.49 364.72 135.11 364.17 134.43 364.61 134.05 365.17 133.75 366.11 133.71 366.98 133.56 368.52 133.36 369.11 133.97 369.89 133.97 370.57 133.86 371.26 133.94 371.77 134.24 372.53 134.65 373.34 135.34 373.76 135.68 374.19 135.75 375.26 135.87 376.28 136.02 377.1 136.06 377.53 136.06 378.05 135.37 378.58 134.84 379.1 134.46 379.7 134.35 380.26 134.43 380.72 134.84 381.24 134.96 382.22 134.88"/>
    <polygon class="cls-2" points="374.1 110.46 374.47 110.81 375.13 110.65 375.7 110.39 376.18 110.35 376.95 110.54 377.51 110.58 378.29 110.65 378.76 110.77 379.46 111.35 381.19 113.13 382.19 113.89 382.81 114.47 383.25 115.2 383.14 115.7 382.95 116.2 382.72 116.62 382.27 116.97 382.04 117.39 382.02 117.66 382.01 118.12 382.03 118.58 382.32 118.77 382.88 118.77 383.58 118.77 384.33 119.19 384.23 119.77 384.5 120.5 384.95 121.11 385.49 121.83 386.32 122.56 387.11 123.32 387.83 123.67 389.07 124.01 390.38 124.54 391.62 124.85 392.56 125.12 393.19 125.42 394 125.61 394.65 125.69 395.46 125.84 396.28 125.84 395.87 126.29 395.03 127.21 393.79 128.31 391.25 130.52 390.71 131.16 390.23 131.73 389.8 132.11 389.14 132.42 388.67 132.65 387.98 132.84 386.94 132.99 385.95 133.1 385.26 133.36 384.69 133.82 383.95 134.35 383.35 134.54 382.22 134.88 381.24 134.96 380.72 134.84 380.26 134.43 379.7 134.35 379.1 134.46 378.58 134.84 378.05 135.37 377.53 136.06 377.1 136.06 376.28 136.02 375.26 135.87 374.19 135.75 373.76 135.68 373.34 135.34 372.53 134.65 371.77 134.24 371.26 133.94 370.57 133.86 369.89 133.97 369.11 133.97 368.52 133.36 368.38 131.77 367.82 131.73 367.35 131.62 366.97 131.28 366.64 130.78 366.52 130.21 366.36 129.76 366.19 129.34 365.86 128.96 365.61 128.62 365.22 128.43 364.8 128.12 364.47 127.63 364.22 127.28 363.63 126.71 362.77 126.37 362.09 126.03 362.15 125.46 362.3 124.81 362.89 124.85 364.31 124.85 364.57 123.13 364.48 121.91 364.83 119.92 364.9 119.38 365.42 119.23 366.07 119.19 366.34 118.73 366.44 118.2 366.72 117.55 367.01 116.78 367.33 116.13 367.61 115.66 368.24 114.93 368.82 114.63 369.18 114.28 369.32 113.82 369.48 113.17 369.72 112.66 369.96 112.08 369.96 111 372.09 110.97 372.62 110.58 372.9 110.15 373.52 110 373.86 110.11 374.1 110.46"/>
    <polygon class="cls-2" points="77.11 102.63 80.37 102.69 81 102.66 81.11 103.69 81.06 104.29 81.07 104.89 81.08 105.46 81.05 106.27 80.96 106.9 81.16 107.11 81.6 107.2 82.03 107.26 83.25 107.51 82.96 108.1 82.5 108.53 81.77 108.97 81.43 109.36 81.18 109.8 81.18 109.97 80.85 110.46 80.6 110.85 79.76 111.45 79.04 112.32 78.48 112.13 77.38 111.91 76.46 111.84 75.52 111.62 74.62 111.03 74 110.38 74.35 109.18 74.62 108.37 74.62 107.83 74.71 107.47 75.03 107.11 75.36 106.78 75.78 106.69 76.62 106.69 77.26 106.75 78.23 106.48 78.15 106.12 77.93 105.67 77.49 105.19 77.12 104.92 76.66 104.74 75.88 104.2 76.05 104.17 76.64 104.11 76.93 103.75 76.95 103.23 76.91 102.93 76.94 102.63 77.11 102.63"/>
    <polygon class="cls-2" points="94.02 119.32 94.24 120.13 96.06 122.03 95.5 122.38 95.28 122.62 95.27 122.88 95.36 123.21 95.58 123.56 95.57 124.03 95.5 124.39 95.42 124.8 95.28 125.08 94.44 124.94 93.75 124.36 93.63 123.77 93.41 123.05 92.79 122.53 91.94 122.17 91.32 121.51 91.03 121.07 90.78 121 90.63 121.15 90.49 121.51 90.11 121.88 89.44 121.66 89.24 121.22 88.71 120.78 88.51 120.42 88.63 119.91 89.01 119.61 89.12 118.96 88.97 118.52 88.89 118.3 88.74 118.13 89.4 118.25 90.17 118.12 90.51 118.03 91.02 118.21 91.27 118.55 92.17 118.98 92.51 119.11 92.81 119.33 93.02 119.41 93.32 119.54 93.7 119.5 94.02 119.32"/>
    </g>
    
    </g>
</svg>